<svg width="363" height="27" viewBox="0 0 363 27" fill="none" xmlns="http://www.w3.org/2000/svg">
<path d="M362.5 13.5C362.5 15.2064 362.496 16.6097 362.163 17.8238C361.84 19.0019 361.202 20.008 359.886 20.8892C358.547 21.7857 356.493 22.5604 353.328 23.2144C350.168 23.8673 345.938 24.3927 340.275 24.8139C317.612 26.4996 272.264 26.5 181.5 26.5C90.7356 26.5 45.388 26.4996 22.7246 24.8139C17.0617 24.3927 12.8322 23.8673 9.67246 23.2144C6.50669 22.5604 4.45326 21.7857 3.11408 20.8892C1.79768 20.008 1.15994 19.0019 0.836672 17.8238C0.503566 16.6097 0.5 15.2064 0.5 13.5C0.5 11.7936 0.503566 10.3903 0.836672 9.17624C1.15994 7.99805 1.79768 6.99203 3.11408 6.11081C4.45326 5.21433 6.50669 4.43964 9.67246 3.78556C12.8322 3.13271 17.0617 2.60733 22.7246 2.18612C45.388 0.500414 90.7356 0.5 181.5 0.5C272.264 0.5 317.612 0.500414 340.275 2.18612C345.938 2.60733 350.168 3.13271 353.328 3.78556C356.493 4.43964 358.547 5.21433 359.886 6.11081C361.202 6.99203 361.84 7.99805 362.163 9.17624C362.496 10.3903 362.5 11.7936 362.5 13.5Z" stroke="black"/>
</svg>
