<svg width="58" height="66" viewBox="0 0 58 66" fill="none" xmlns="http://www.w3.org/2000/svg">
<path d="M10.4109 61.8525C6.4353 62.5231 -0.919552 61.249 1.46581 50.7884C4.4475 37.7127 10.411 28.1573 7.92623 23.6311C11.5043 28.4591 10.7423 32.013 9.91403 33.1865C14.3866 27.1515 22.6359 13.1705 19.853 5.52622C22.6359 13.1705 22.8347 22.6253 25.3195 23.1282C24.6569 21.4518 23.6298 17.6967 24.8225 16.0874C29.0392 13.5981 29.6842 6.7347 29.434 2.51183C29.3833 1.98891 29.337 1.48363 29.2951 1C29.3528 1.44775 29.4011 1.957 29.434 2.51183C30.3842 12.3204 32.8554 28.3357 36.2524 24.134C35.4572 14.8804 37.9089 9.21425 39.2341 7.53787C39.0684 15.4169 39.5322 30.7725 42.7127 29.1632C45.83 27.5858 46.974 21.0483 47.1742 17.7901C47.1779 17.7248 47.1815 17.6601 47.1852 17.5961C47.182 17.6594 47.1783 17.7241 47.1742 17.7901C46.855 23.5435 46.9183 34.3799 49.67 33.1865C53.1486 31.6777 47.1852 26.6486 52.1547 22.6253C57.6212 38.2156 60.6029 59.338 49.173 56.8234C40.0292 54.8117 19.5217 59.338 10.4109 61.8525Z" fill="#C67B23"/>
<path d="M10.4109 61.8525C6.4353 62.5231 -0.919552 61.249 1.46581 50.7884C4.4475 37.7127 10.411 28.1573 7.92623 23.6311C11.5043 28.4591 10.7423 32.013 9.91403 33.1865C14.3866 27.1515 22.6359 13.1705 19.853 5.52622C22.6359 13.1705 22.8347 22.6253 25.3195 23.1282C24.6569 21.4518 23.6298 17.6967 24.8225 16.0874C29.5932 13.2711 29.792 4.85567 29.2951 1C30.1233 10.5554 32.6743 28.5597 36.2524 24.134C35.4572 14.8804 37.9089 9.21425 39.2341 7.53787C39.0684 15.4169 39.5322 30.7725 42.7127 29.1632C45.8932 27.5538 47.0196 20.7813 47.1852 17.5961C46.8539 23.2958 46.8871 34.3935 49.67 33.1865C53.1486 31.6777 47.1852 26.6486 52.1547 22.6253C57.6212 38.2156 60.6029 59.338 49.173 56.8234C40.0292 54.8117 19.5217 59.338 10.4109 61.8525Z" stroke="#AE3F00"/>
<path d="M9.49938 59.1225C8.99938 58.547 -0.000616074 56.2451 4.99938 47.613C8.99938 40.7074 8.99947 33.9935 8.49951 31.4998L11.9995 34.3772C14.599 30.8573 19.5835 23.0425 20.3885 17.8656C20.3847 15.5517 20.4995 14.3923 20.4995 16.5376C20.4995 16.9555 20.4609 17.3999 20.3885 17.8656C20.396 22.3792 20.8551 31.2856 23.4995 28.6225C27.2803 24.815 30.6144 20.4933 29.2796 15.6576C29.0379 14.9573 28.8345 14.3944 28.7115 14.0602C28.5574 13.6412 28.5296 13.5814 28.7115 14.0602C28.7781 14.2354 28.8727 14.4828 28.9995 14.8112C29.1091 15.095 29.2022 15.3772 29.2796 15.6576C30.3732 18.8263 32.2499 24.8099 30.9995 25.1696C29.1731 25.6952 36.9373 25.7408 37.537 20.4854C37.5128 19.9227 37.4995 19.3696 37.4995 18.8394C37.5863 19.4387 37.594 19.986 37.537 20.4854C37.7232 24.8096 38.5571 29.7071 38.9995 29.1979C39.4995 28.6225 43.9995 31.4998 44.4995 26.3206C44.8995 22.1772 45.9995 39.9401 46.4995 49.3394C48.4995 43.0093 52.4995 30.464 52.4995 30.9244C52.4995 31.4998 56.9995 52.2168 49.4995 49.9149L9.49938 59.1225Z" fill="#F4C959"/>
<path d="M9.49938 59.1225C8.99938 58.547 -0.000616074 56.2451 4.99938 47.613C8.99938 40.7074 8.99947 33.9935 8.49951 31.4998L11.9995 34.3772C14.8328 30.5407 20.4995 21.6017 20.4995 16.5376C20.4995 10.2074 19.4995 32.6508 23.4995 28.6225C27.4995 24.5942 30.9995 19.9904 28.9995 14.8112C26.9995 9.63191 32.9995 24.5942 30.9995 25.1696C28.9995 25.7451 38.4995 25.7451 37.4995 18.8394C37.4995 23.4432 38.4995 29.7734 38.9995 29.1979C39.4995 28.6225 43.9995 31.4998 44.4995 26.3206C44.8995 22.1772 45.9995 39.9401 46.4995 49.3394C48.4995 43.0093 52.4995 30.464 52.4995 30.9244C52.4995 31.4998 56.9995 52.2168 49.4995 49.9149L9.49938 59.1225Z" stroke="#FFBA09" stroke-width="1.2"/>
<path d="M7 30.5L29 24.5L51.5 28.5L45 65.5H39.5H19H13L5 34L7 30.5Z" fill="#4B4B4B"/>
<path d="M7 30.5L29 24.5L51.5 28.5M7 30.5L29 28.5M7 30.5L5 34M51.5 28.5H29M51.5 28.5L40 37.5M51.5 28.5L45 65.5H39.5M29 28.5L15.5 36.5M29 28.5L40 37.5M5 34L15.5 36.5M5 34L13 65.5H19M15.5 36.5L40 37.5M15.5 36.5L19 65.5M40 37.5L39.5 65.5M19 65.5H39.5" stroke="black"/>
<path d="M7 30.5L29 28.5L8 34.5L14 63.5L5 34L7 30.5Z" fill="#FF4545" fill-opacity="0.5"/>
<path d="M45.5 33L29.5 28L51.5 28.5L45 65.5H42.5L45.5 33Z" fill="#6F1919"/>
<path d="M6 31L28 25L50.5 29L45 65.5H39.5H19H13L4 34.5L6 31Z" fill="#FF1515" fill-opacity="0.3"/>
<path d="M6 31L28 25L50.5 29M6 31L28 29M6 31L4 34.5M50.5 29H28M50.5 29L39 38M50.5 29L45 65.5H39.5M28 29L14.5 37M28 29L39 38M4 34.5L14.5 37M4 34.5L13 65.5H19M14.5 37L39 38M14.5 37L19 65.5M39 38L39.5 65.5M19 65.5H39.5" stroke="black"/>
<path d="M14.0366 33.3692C11.058 33.4331 5.57317 32.8859 7.46199 30.1864C9.82301 26.812 14.3773 24.4541 12.5657 23.1856C15.1915 24.5652 14.586 25.4837 13.955 25.7705C17.3593 24.3016 23.667 20.8381 21.6641 18.7361C23.667 20.8381 23.72 23.3453 25.5723 23.5494C25.0939 23.0869 24.3642 22.064 25.272 21.6723C28.4491 21.1342 29.0006 19.3366 28.8563 18.2122C28.8237 18.0724 28.7942 17.9374 28.7677 17.8082C28.8064 17.9283 28.8373 18.0645 28.8563 18.2122C29.4674 20.8345 31.1527 25.1424 33.7344 24.1278C33.2336 21.6567 35.1235 20.2276 36.131 19.8219C35.9276 21.9018 36.119 25.9779 38.5127 25.6429C40.8588 25.3146 41.7801 23.6176 41.9627 22.7613C41.966 22.7441 41.9694 22.7271 41.9729 22.7103C41.9698 22.7269 41.9664 22.7439 41.9627 22.7613C41.6659 24.2744 41.6036 27.1433 43.6726 26.9062C46.2881 26.6063 41.8813 25.1054 45.6367 24.1828C49.5653 28.4639 51.5805 34.1376 43.0621 33.1458C36.2474 32.3524 20.8723 32.9642 14.0366 33.3692Z" fill="#C67B23"/>
<path d="M14.0366 33.3692C11.058 33.4331 5.57317 32.8859 7.46199 30.1864C9.82301 26.812 14.3773 24.4541 12.5657 23.1856C15.1915 24.5652 14.586 25.4837 13.955 25.7705C17.3593 24.3016 23.667 20.8381 21.6641 18.7361C23.667 20.8381 23.72 23.3453 25.5723 23.5494C25.0939 23.0869 24.3642 22.064 25.272 21.6723C28.8666 21.0634 29.1002 18.8426 28.7677 17.8082C29.2903 20.3601 31.0151 25.1965 33.7344 24.1278C33.2336 21.6567 35.1235 20.2276 36.131 19.8219C35.9276 21.9018 36.119 25.9779 38.5127 25.6429C40.9064 25.308 41.8168 23.5483 41.9729 22.7103C41.6676 24.2088 41.5802 27.146 43.6726 26.9062C46.2881 26.6063 41.8813 25.1054 45.6367 24.1828C49.5653 28.4639 51.5805 34.1376 43.0621 33.1458C36.2474 32.3524 20.8723 32.9642 14.0366 33.3692Z" stroke="#AE3F00"/>
<path d="M13.3778 32.7517C13.0089 32.6113 6.30068 31.8499 10.1105 30.1013C13.1583 28.7025 13.2146 27.2315 12.8617 26.6708L15.4539 27.4012C17.4265 26.7043 21.2178 25.1344 21.8629 24.0231C21.8794 23.516 21.975 23.2652 21.957 23.7353C21.9535 23.8269 21.9209 23.9231 21.8629 24.0231C21.8307 25.0123 22.0993 26.9768 24.0983 26.4688C26.9563 25.7426 29.4847 24.8909 28.5275 23.7933C28.3527 23.6329 28.2053 23.5038 28.1162 23.427C28.0045 23.3308 27.9843 23.3169 28.1162 23.427C28.1645 23.4673 28.2332 23.5242 28.3252 23.5998C28.4048 23.6651 28.472 23.7296 28.5275 23.7933C29.3184 24.5188 30.6712 25.8834 29.7335 25.9265C28.3638 25.9895 34.1671 26.2213 34.6595 25.0869C34.6461 24.9629 34.6408 24.8414 34.6452 24.7252C34.7051 24.859 34.7062 24.9791 34.6595 25.0869C34.7624 26.0397 35.3448 27.1366 35.6797 27.0377C36.0583 26.9259 39.398 27.6849 39.8151 26.5643C40.1488 25.6679 40.8223 29.5913 41.1173 31.665C42.6653 30.3352 45.7604 27.7007 45.7565 27.8016C45.7517 27.9277 48.942 32.5954 43.355 31.8768L13.3778 32.7517Z" fill="#F4C959"/>
<path d="M13.3778 32.7517C13.0089 32.6113 6.30068 31.8499 10.1105 30.1013C13.1583 28.7025 13.2146 27.2315 12.8617 26.6708L15.4539 27.4012C17.6039 26.6416 21.9146 24.8449 21.957 23.7353C22.01 22.3483 21.0746 27.2372 24.0983 26.4688C27.122 25.7005 29.7768 24.7917 28.3252 23.5998C26.8736 22.4079 31.2333 25.8576 29.7335 25.9265C28.2336 25.9955 35.3349 26.2669 34.6452 24.7252C34.6067 25.7339 35.3012 27.1495 35.6797 27.0377C36.0583 26.9259 39.398 27.6849 39.8151 26.5643C40.1488 25.6679 40.8223 29.5913 41.1173 31.665C42.6653 30.3352 45.7604 27.7007 45.7565 27.8016C45.7517 27.9277 48.942 32.5954 43.355 31.8768L13.3778 32.7517Z" stroke="#FFBA09"/>
<path d="M35.3334 52.4951C38.2195 50.4964 34.7631 43.5479 31.5017 44.8469C30.0484 45.4258 28.617 47.0864 30.1144 50.8457C30.8586 52.7143 32.5084 53.1835 34.5377 52.8107C34.8562 52.7522 35.119 52.6437 35.3334 52.4951Z" fill="white"/>
<path d="M28.2568 53.2479C32.6052 50.5662 29.9752 41.1209 25.229 43.0113C23.7756 43.5902 20.7927 47.0851 22.2898 50.8437C23.0339 52.7119 25.2909 54.0042 27.3203 53.6313C27.6279 53.5748 27.9433 53.4412 28.2568 53.2479Z" fill="white"/>
<ellipse cx="28.2922" cy="49.5093" rx="0.745446" ry="0.993928" transform="rotate(-5.49302 28.2922 49.5093)" fill="black"/>
<circle cx="28.2915" cy="48.7636" r="0.248482" fill="white"/>
<circle cx="28.2915" cy="48.7636" r="0.248482" fill="white"/>
<circle cx="28.2915" cy="48.7636" r="0.248482" fill="white"/>
<ellipse cx="33.261" cy="49.5093" rx="0.745446" ry="0.993928" transform="rotate(-5.49302 33.261 49.5093)" fill="black"/>
<circle cx="33.2622" cy="48.7636" r="0.248482" fill="white"/>
<circle cx="33.2622" cy="48.7636" r="0.248482" fill="white"/>
<circle cx="33.2622" cy="48.7636" r="0.248482" fill="white"/>
<path d="M22.5072 41.6452C21.8455 41.2449 20.7246 40.3556 21.5348 40.0001C22.5476 39.5557 23.8915 39.6497 23.681 39.1067C24.0535 39.7885 23.7859 39.9147 23.6056 39.8925C24.567 40.0301 26.4573 40.1149 26.3274 39.3543C26.4573 40.1149 26.1006 40.6969 26.4763 41.0016C26.4395 40.829 26.4299 40.493 26.6863 40.5296C27.4612 40.8488 27.846 40.5137 27.9796 40.236C27.993 40.1994 28.0064 40.1643 28.0195 40.1311C28.0104 40.164 27.9972 40.1995 27.9796 40.236C27.7282 40.922 27.4645 42.1439 28.179 42.271C28.4323 41.635 29.0562 41.5707 29.3365 41.6181C28.9864 42.0663 28.4295 43.027 29.003 43.2837C29.5651 43.5352 30.0161 43.2747 30.1819 43.1039C30.1852 43.1004 30.1884 43.097 30.1916 43.0936C30.1885 43.097 30.1853 43.1004 30.1819 43.1039C29.8947 43.4093 29.4596 44.058 29.9476 44.2918C30.5645 44.5874 29.8198 43.6297 30.7778 43.9413C31.0094 45.4695 30.6173 47.0504 28.8973 45.6366C27.5213 44.5057 24.0639 42.5044 22.5072 41.6452Z" fill="#C67B23"/>
<path d="M22.5072 41.6452C21.8455 41.2449 20.7246 40.3556 21.5348 40.0001C22.5476 39.5557 23.8915 39.6497 23.681 39.1067C24.0535 39.7885 23.7859 39.9147 23.6056 39.8925C24.567 40.0301 26.4573 40.1149 26.3274 39.3543C26.4573 40.1149 26.1006 40.6969 26.4763 41.0016C26.4395 40.829 26.4299 40.493 26.6863 40.5296C27.563 40.8908 27.9404 40.4144 28.0195 40.1311C27.7591 40.7886 27.4264 42.1371 28.179 42.271C28.4323 41.635 29.0562 41.5707 29.3365 41.6181C28.9864 42.0663 28.4295 43.027 29.003 43.2837C29.5765 43.5403 30.0344 43.2639 30.1916 43.0936C29.9047 43.3945 29.454 44.0554 29.9476 44.2918C30.5645 44.5874 29.8198 43.6297 30.7778 43.9413C31.0094 45.4695 30.6173 47.0504 28.8973 45.6366C27.5213 44.5057 24.0639 42.5044 22.5072 41.6452Z" stroke="#AE3F00" stroke-width="0.2"/>
<path d="M22.4529 41.4122C22.3927 41.3287 21.0353 40.2199 22.1266 40.3498C22.9996 40.4538 23.228 40.1245 23.2331 39.9469L23.6935 40.4753C24.2279 40.5904 25.2889 40.7587 25.5935 40.5939C25.6716 40.48 25.7293 40.4358 25.6564 40.541C25.6421 40.5615 25.6209 40.579 25.5935 40.5939C25.4411 40.816 25.2114 41.3036 25.7238 41.4657C26.4564 41.6973 27.1353 41.8543 27.0869 41.4694C27.0722 41.4083 27.0589 41.3582 27.0506 41.3282C27.0403 41.2906 27.0379 41.2846 27.0506 41.3282C27.0553 41.3442 27.062 41.3668 27.071 41.3969C27.0789 41.423 27.0841 41.4471 27.0869 41.4694C27.1536 41.7459 27.2494 42.247 27.0377 42.1263C26.7284 41.9499 27.9655 42.8113 28.2399 42.62C28.2552 42.5897 28.2719 42.5611 28.2899 42.5351C28.2834 42.5741 28.266 42.6018 28.2399 42.62C28.1225 42.8526 28.0889 43.1851 28.1768 43.2091C28.2762 43.2362 28.8961 43.8753 29.1521 43.6766C29.3568 43.5176 28.928 44.5105 28.688 45.0268C29.2224 44.9377 30.2873 44.765 30.2716 44.7876C30.2521 44.8158 30.2651 46.3298 29.147 45.387L22.4529 41.4122Z" fill="#F4C959"/>
<path d="M22.4529 41.4122C22.3927 41.3287 21.0353 40.2199 22.1266 40.3498C22.9996 40.4538 23.228 40.1245 23.2331 39.9469L23.6935 40.4753C24.276 40.6007 25.4841 40.7894 25.6564 40.541C25.8717 40.2306 24.9487 41.2206 25.7238 41.4657C26.4989 41.7107 27.2139 41.8723 27.071 41.3969C26.9282 40.9216 27.3763 42.3193 27.0377 42.1263C26.6991 41.9332 28.2145 42.9844 28.2899 42.5351C28.1333 42.7609 28.0775 43.182 28.1768 43.2091C28.2762 43.2362 28.8961 43.8753 29.1521 43.6766C29.3568 43.5176 28.928 44.5105 28.688 45.0268C29.2224 44.9377 30.2873 44.765 30.2716 44.7876C30.2521 44.8158 30.2651 46.3298 29.147 45.387L22.4529 41.4122Z" stroke="#FFBA09" stroke-width="0.2"/>
<path d="M29.997 47.1132C29.3588 47.5483 28.1183 48.2577 28.2618 47.6143C28.4412 46.81 29.195 45.8323 28.6784 45.9162C29.3821 45.7311 29.3413 45.9447 29.2329 46.0747C29.8253 45.3844 30.8499 44.003 30.21 43.9991C30.8499 44.003 31.1077 44.3419 31.5285 44.1051C31.3796 44.1096 31.1212 44.0727 31.2791 43.8886C31.9137 43.3595 31.8565 43.0321 31.7148 42.8974C31.694 42.8827 31.6744 42.8683 31.656 42.8542C31.6761 42.8653 31.6962 42.8797 31.7148 42.8974C32.1046 43.1724 32.8925 43.5266 33.3514 43.0169C33.0003 42.747 33.2689 42.279 33.447 42.0787C33.6073 42.3953 34.0492 42.9313 34.5342 42.5424C35.0096 42.1613 35.0422 41.7949 34.9976 41.6504C34.9967 41.6475 34.9957 41.6447 34.9948 41.6419C34.9958 41.6446 34.9967 41.6475 34.9976 41.6504C35.0821 41.902 35.3504 42.3074 35.7748 41.9785C36.3113 41.5628 35.2103 41.986 35.9323 41.321C37.2029 41.3505 38.1963 41.8463 36.2557 42.9283C34.7031 43.7939 31.4364 46.0789 29.997 47.1132Z" fill="#C67B23"/>
<path d="M29.997 47.1132C29.3588 47.5483 28.1183 48.2577 28.2618 47.6143C28.4412 46.81 29.195 45.8323 28.6784 45.9162C29.3821 45.7311 29.3413 45.9447 29.2329 46.0747C29.8253 45.3844 30.8499 44.003 30.21 43.9991C30.8499 44.003 31.1077 44.3419 31.5285 44.1051C31.3796 44.1096 31.1212 44.0727 31.2791 43.8886C31.9971 43.29 31.8295 42.9496 31.656 42.8542C32.0197 43.1321 32.868 43.5537 33.3514 43.0169C33.0003 42.747 33.2689 42.279 33.447 42.0787C33.6073 42.3953 34.0492 42.9313 34.5342 42.5424C35.0192 42.1535 35.0434 41.78 34.9948 41.6419C35.076 41.8927 35.3456 42.3111 35.7748 41.9785C36.3113 41.5628 35.2103 41.986 35.9323 41.321C37.2029 41.3505 38.1963 41.8463 36.2557 42.9283C34.7031 43.7939 31.4364 46.0789 29.997 47.1132Z" stroke="#AE3F00" stroke-width="0.2"/>
<path d="M29.7936 47.1228C29.6999 47.1562 28.1736 48.011 28.8262 47.2241C29.3483 46.5946 29.2159 46.3832 29.0845 46.3562L29.7172 46.0862C30.0755 45.7076 30.7417 44.948 30.7721 44.702C30.7259 44.6296 30.7219 44.5813 30.7642 44.6488C30.7724 44.662 30.7748 44.6799 30.7721 44.702C30.8623 44.8434 31.1134 45.0765 31.4961 44.7202C32.0431 44.2107 32.5066 43.7312 32.1916 43.7165C32.138 43.7193 32.0935 43.7226 32.0666 43.7247C32.033 43.7274 32.0273 43.7284 32.0666 43.7247C32.0811 43.7234 32.1015 43.7214 32.1288 43.7187C32.1525 43.7163 32.1734 43.7156 32.1916 43.7165C32.434 43.7035 32.8608 43.6986 32.6621 43.8387C32.3719 44.0434 33.6504 43.2449 33.6455 43.0177C33.6305 43.0025 33.6174 42.9864 33.6069 42.9697C33.633 42.9796 33.6451 42.9961 33.6455 43.0177C33.7614 43.1346 33.9952 43.2029 34.0579 43.1413C34.1289 43.0716 34.9261 42.6986 34.9062 42.484C34.8904 42.3124 35.4215 42.7582 35.6891 43.0026C35.8934 42.5973 36.3043 41.7902 36.3134 41.8047C36.3247 41.8228 37.4736 42.0114 36.1941 42.7116L29.7936 47.1228Z" fill="#F4C959"/>
<path d="M29.7936 47.1228C29.6999 47.1562 28.1736 48.011 28.8262 47.2241C29.3483 46.5946 29.2159 46.3832 29.0845 46.3562L29.7172 46.0862C30.1078 45.6735 30.864 44.8082 30.7642 44.6488C30.6394 44.4495 30.9173 45.2591 31.4961 44.7202C32.0749 44.1812 32.56 43.6757 32.1288 43.7187C31.6976 43.7617 32.9799 43.6145 32.6621 43.8387C32.3444 44.0629 33.9076 43.0841 33.6069 42.9697C33.6977 43.1147 33.987 43.2109 34.0579 43.1413C34.1289 43.0716 34.9261 42.6986 34.9062 42.484C34.8904 42.3124 35.4215 42.7582 35.6891 43.0026C35.8934 42.5973 36.3043 41.7902 36.3134 41.8047C36.3247 41.8228 37.4736 42.0114 36.1941 42.7116L29.7936 47.1228Z" stroke="#FFBA09" stroke-width="0.2"/>
<path d="M28 58.5H35" stroke="black"/>
</svg>
