<svg width="263" height="58" viewBox="0 0 263 58" fill="none" xmlns="http://www.w3.org/2000/svg">
<rect x="1.5" y="1.5" width="260" height="55" rx="24.5" fill="url(#paint0_linear_274_1222)" stroke="#4E69AF" stroke-width="3"/>
<rect x="10.5" y="9.5" width="242" height="40" rx="20" fill="url(#paint1_linear_274_1222)" stroke="#A7F4F9" stroke-width="3"/>
<path d="M248.229 39.0699L240.008 46.2467C239.312 46.8543 239.742 48 240.666 48H246.854C249.464 48 251.374 45.542 250.731 43.0133L249.856 39.5765C249.672 38.854 248.791 38.5796 248.229 39.0699Z" fill="white"/>
<path d="M16.9638 13.1115L16.9638 14.5441C16.9638 15.3599 17.8882 15.8324 18.5495 15.3546L21.09 13.519L24.7431 12.031C25.5992 11.6823 25.5643 10.4582 24.6897 10.1588L22.2591 9.32689C19.6631 8.43837 16.9637 10.3677 16.9638 13.1115Z" fill="white"/>
<mask id="path-5-outside-1_274_1222" maskUnits="userSpaceOnUse" x="96" y="16" width="72" height="28" fill="black">
<rect fill="white" x="96" y="16" width="72" height="28"/>
<path d="M112.917 29.448L113.365 25.16H113.205L112.021 29L108.373 36.872H107.029L103.157 28.968L101.973 25.096H101.781L102.389 29.416V41H98.5806V18.6H102.453L107.125 28.296L107.893 31.08H108.021L108.757 28.232L113.141 18.6H116.949V41H112.917V29.448ZM130.583 39.816C130.049 40.2853 129.324 40.6693 128.407 40.968C127.489 41.2667 126.529 41.416 125.527 41.416C124.417 41.416 123.457 41.224 122.647 40.84C121.857 40.456 121.207 39.9013 120.695 39.176C120.183 38.4507 119.799 37.576 119.543 36.552C119.308 35.5067 119.191 34.3227 119.191 33C119.191 30.12 119.756 27.9973 120.887 26.632C122.039 25.2453 123.628 24.552 125.655 24.552C126.337 24.552 126.999 24.6587 127.639 24.872C128.279 25.064 128.844 25.4053 129.335 25.896C129.847 26.3653 130.252 27.0053 130.551 27.816C130.871 28.6053 131.031 29.608 131.031 30.824C131.031 31.2933 130.999 31.7947 130.935 32.328C130.892 32.8613 130.817 33.4373 130.711 34.056H122.935C122.977 35.3787 123.255 36.392 123.767 37.096C124.279 37.8 125.1 38.152 126.231 38.152C126.913 38.152 127.532 38.0453 128.087 37.832C128.663 37.6187 129.1 37.3947 129.399 37.16L130.583 39.816ZM125.591 27.816C124.78 27.816 124.172 28.1467 123.767 28.808C123.361 29.448 123.127 30.3547 123.063 31.528H127.479C127.543 30.312 127.415 29.3947 127.095 28.776C126.775 28.136 126.273 27.816 125.591 27.816ZM141.102 34.632H137.262V41H133.454V25H137.262V31.144H141.102V25H144.91V41H141.102V34.632ZM159.097 41.384C157.113 41.384 155.684 40.7867 154.809 39.592C153.956 38.3973 153.454 36.6907 153.305 34.472H151.481V41H147.673V25H151.481V31.08H153.337C153.529 28.9467 154.073 27.336 154.969 26.248C155.886 25.16 157.284 24.616 159.161 24.616C161.209 24.616 162.702 25.352 163.641 26.824C164.58 28.2747 165.049 30.3333 165.049 33C165.049 38.5893 163.065 41.384 159.097 41.384ZM156.921 33C156.921 34.6427 157.081 35.8907 157.401 36.744C157.721 37.576 158.286 37.992 159.097 37.992C159.438 37.992 159.737 37.9173 159.993 37.768C160.249 37.6187 160.462 37.352 160.633 36.968C160.804 36.584 160.921 36.072 160.985 35.432C161.07 34.792 161.113 33.9813 161.113 33C161.113 31.2507 160.964 29.9813 160.665 29.192C160.366 28.4027 159.822 28.008 159.033 28.008C158.308 28.008 157.774 28.3813 157.433 29.128C157.092 29.8533 156.921 31.144 156.921 33Z"/>
</mask>
<path d="M112.917 29.448L113.365 25.16H113.205L112.021 29L108.373 36.872H107.029L103.157 28.968L101.973 25.096H101.781L102.389 29.416V41H98.5806V18.6H102.453L107.125 28.296L107.893 31.08H108.021L108.757 28.232L113.141 18.6H116.949V41H112.917V29.448ZM130.583 39.816C130.049 40.2853 129.324 40.6693 128.407 40.968C127.489 41.2667 126.529 41.416 125.527 41.416C124.417 41.416 123.457 41.224 122.647 40.84C121.857 40.456 121.207 39.9013 120.695 39.176C120.183 38.4507 119.799 37.576 119.543 36.552C119.308 35.5067 119.191 34.3227 119.191 33C119.191 30.12 119.756 27.9973 120.887 26.632C122.039 25.2453 123.628 24.552 125.655 24.552C126.337 24.552 126.999 24.6587 127.639 24.872C128.279 25.064 128.844 25.4053 129.335 25.896C129.847 26.3653 130.252 27.0053 130.551 27.816C130.871 28.6053 131.031 29.608 131.031 30.824C131.031 31.2933 130.999 31.7947 130.935 32.328C130.892 32.8613 130.817 33.4373 130.711 34.056H122.935C122.977 35.3787 123.255 36.392 123.767 37.096C124.279 37.8 125.1 38.152 126.231 38.152C126.913 38.152 127.532 38.0453 128.087 37.832C128.663 37.6187 129.1 37.3947 129.399 37.16L130.583 39.816ZM125.591 27.816C124.78 27.816 124.172 28.1467 123.767 28.808C123.361 29.448 123.127 30.3547 123.063 31.528H127.479C127.543 30.312 127.415 29.3947 127.095 28.776C126.775 28.136 126.273 27.816 125.591 27.816ZM141.102 34.632H137.262V41H133.454V25H137.262V31.144H141.102V25H144.91V41H141.102V34.632ZM159.097 41.384C157.113 41.384 155.684 40.7867 154.809 39.592C153.956 38.3973 153.454 36.6907 153.305 34.472H151.481V41H147.673V25H151.481V31.08H153.337C153.529 28.9467 154.073 27.336 154.969 26.248C155.886 25.16 157.284 24.616 159.161 24.616C161.209 24.616 162.702 25.352 163.641 26.824C164.58 28.2747 165.049 30.3333 165.049 33C165.049 38.5893 163.065 41.384 159.097 41.384ZM156.921 33C156.921 34.6427 157.081 35.8907 157.401 36.744C157.721 37.576 158.286 37.992 159.097 37.992C159.438 37.992 159.737 37.9173 159.993 37.768C160.249 37.6187 160.462 37.352 160.633 36.968C160.804 36.584 160.921 36.072 160.985 35.432C161.07 34.792 161.113 33.9813 161.113 33C161.113 31.2507 160.964 29.9813 160.665 29.192C160.366 28.4027 159.822 28.008 159.033 28.008C158.308 28.008 157.774 28.3813 157.433 29.128C157.092 29.8533 156.921 31.144 156.921 33Z" fill="white"/>
<path d="M112.917 29.448L110.927 29.2402L110.917 29.3438V29.448H112.917ZM113.365 25.16L115.354 25.3678L115.584 23.16H113.365V25.16ZM113.205 25.16V23.16H111.728L111.293 24.5707L113.205 25.16ZM112.021 29L113.835 29.8409L113.892 29.7184L113.932 29.5893L112.021 29ZM108.373 36.872V38.872H109.65L110.187 37.7129L108.373 36.872ZM107.029 36.872L105.233 37.7519L105.781 38.872H107.029V36.872ZM103.157 28.968L101.244 29.5528L101.291 29.705L101.361 29.8479L103.157 28.968ZM101.973 25.096L103.885 24.5112L103.452 23.096H101.973V25.096ZM101.781 25.096V23.096H99.4794L99.8001 25.3747L101.781 25.096ZM102.389 29.416H104.389V29.2759L104.369 29.1373L102.389 29.416ZM102.389 41V43H104.389V41H102.389ZM98.5806 41H96.5806V43H98.5806V41ZM98.5806 18.6V16.6H96.5806V18.6H98.5806ZM102.453 18.6L104.254 17.7318L103.709 16.6H102.453V18.6ZM107.125 28.296L109.053 27.7641L109.005 27.5903L108.926 27.4278L107.125 28.296ZM107.893 31.08L105.965 31.6119L106.37 33.08H107.893V31.08ZM108.021 31.08V33.08H109.569L109.957 31.5804L108.021 31.08ZM108.757 28.232L106.936 27.4035L106.864 27.5625L106.82 27.7316L108.757 28.232ZM113.141 18.6V16.6H111.854L111.32 17.7715L113.141 18.6ZM116.949 18.6H118.949V16.6H116.949V18.6ZM116.949 41V43H118.949V41H116.949ZM112.917 41H110.917V43H112.917V41ZM114.906 29.6558L115.354 25.3678L111.375 24.9522L110.927 29.2402L114.906 29.6558ZM113.365 23.16H113.205V27.16H113.365V23.16ZM111.293 24.5707L110.109 28.4107L113.932 29.5893L115.116 25.7493L111.293 24.5707ZM110.206 28.1591L106.558 36.0311L110.187 37.7129L113.835 29.8409L110.206 28.1591ZM108.373 34.872H107.029V38.872H108.373V34.872ZM108.825 35.9921L104.953 28.0881L101.361 29.8479L105.233 37.7519L108.825 35.9921ZM105.069 28.3832L103.885 24.5112L100.06 25.6808L101.244 29.5528L105.069 28.3832ZM101.973 23.096H101.781V27.096H101.973V23.096ZM99.8001 25.3747L100.408 29.6947L104.369 29.1373L103.761 24.8173L99.8001 25.3747ZM100.389 29.416V41H104.389V29.416H100.389ZM102.389 39H98.5806V43H102.389V39ZM100.581 41V18.6H96.5806V41H100.581ZM98.5806 20.6H102.453V16.6H98.5806V20.6ZM100.651 19.4682L105.323 29.1642L108.926 27.4278L104.254 17.7318L100.651 19.4682ZM105.197 28.8279L105.965 31.6119L109.821 30.5481L109.053 27.7641L105.197 28.8279ZM107.893 33.08H108.021V29.08H107.893V33.08ZM109.957 31.5804L110.693 28.7324L106.82 27.7316L106.084 30.5796L109.957 31.5804ZM110.577 29.0605L114.961 19.4285L111.32 17.7715L106.936 27.4035L110.577 29.0605ZM113.141 20.6H116.949V16.6H113.141V20.6ZM114.949 18.6V41H118.949V18.6H114.949ZM116.949 39H112.917V43H116.949V39ZM114.917 41V29.448H110.917V41H114.917ZM130.583 39.816L131.904 41.3174L133.008 40.3455L132.409 39.0017L130.583 39.816ZM128.407 40.968L129.026 42.8697L128.407 40.968ZM122.647 40.84L121.772 42.6385L121.781 42.643L121.79 42.6475L122.647 40.84ZM120.695 39.176L122.329 38.0226V38.0226L120.695 39.176ZM119.543 36.552L117.591 36.9901L117.596 37.0136L117.602 37.0371L119.543 36.552ZM120.887 26.632L119.348 25.354L119.346 25.3564L120.887 26.632ZM127.639 24.872L127.006 26.7694L127.035 26.7789L127.064 26.7877L127.639 24.872ZM129.335 25.896L127.92 27.3102L127.951 27.3409L127.983 27.3703L129.335 25.896ZM130.551 27.816L128.674 28.5074L128.685 28.5376L128.697 28.5674L130.551 27.816ZM130.935 32.328L128.949 32.0897L128.944 32.129L128.941 32.1685L130.935 32.328ZM130.711 34.056V36.056H132.395L132.682 34.3958L130.711 34.056ZM122.935 34.056V32.056H120.869L120.936 34.1205L122.935 34.056ZM123.767 37.096L125.384 35.9197L123.767 37.096ZM128.087 37.832L127.392 35.9565L127.38 35.9608L127.369 35.9653L128.087 37.832ZM129.399 37.16L131.225 36.3457L130.181 34.0021L128.163 35.5874L129.399 37.16ZM123.767 28.808L125.456 29.8781L125.464 29.8657L125.472 29.8531L123.767 28.808ZM123.063 31.528L121.066 31.4191L120.951 33.528H123.063V31.528ZM127.479 31.528V33.528H129.376L129.476 31.6331L127.479 31.528ZM127.095 28.776L125.306 29.6704L125.312 29.6827L125.318 29.6948L127.095 28.776ZM129.261 38.3146C128.992 38.552 128.533 38.8235 127.787 39.0663L129.026 42.8697C130.115 42.5152 131.107 42.0186 131.904 41.3174L129.261 38.3146ZM127.787 39.0663C127.078 39.2973 126.327 39.416 125.527 39.416V43.416C126.731 43.416 127.901 43.236 129.026 42.8697L127.787 39.0663ZM125.527 39.416C124.645 39.416 123.99 39.2634 123.503 39.0325L121.79 42.6475C122.924 43.1846 124.19 43.416 125.527 43.416V39.416ZM123.522 39.0415C123.039 38.8069 122.648 38.4757 122.329 38.0226L119.061 40.3294C119.765 41.327 120.675 42.1051 121.772 42.6385L123.522 39.0415ZM122.329 38.0226C121.983 37.5334 121.69 36.8954 121.483 36.0669L117.602 37.0371C117.907 38.2566 118.382 39.3679 119.061 40.3294L122.329 38.0226ZM121.494 36.1139C121.298 35.2412 121.191 34.2082 121.191 33H117.191C117.191 34.4372 117.318 35.7721 117.591 36.9901L121.494 36.1139ZM121.191 33C121.191 30.3148 121.73 28.7499 122.427 27.9076L119.346 25.3564C117.782 27.2448 117.191 29.9252 117.191 33H121.191ZM122.425 27.91C123.147 27.0411 124.139 26.552 125.655 26.552V22.552C123.117 22.552 120.93 23.4496 119.348 25.354L122.425 27.91ZM125.655 26.552C126.125 26.552 126.573 26.6248 127.006 26.7694L128.271 22.9746C127.425 22.6925 126.55 22.552 125.655 22.552V26.552ZM127.064 26.7877C127.374 26.8808 127.654 27.0442 127.92 27.3102L130.749 24.4818C130.033 23.7664 129.183 23.2472 128.213 22.9563L127.064 26.7877ZM127.983 27.3703C128.21 27.5781 128.459 27.9243 128.674 28.5074L132.427 27.1246C132.045 26.0864 131.483 25.1526 130.686 24.4217L127.983 27.3703ZM128.697 28.5674C128.888 29.0392 129.031 29.7641 129.031 30.824H133.031C133.031 29.4519 132.853 28.1715 132.404 27.0646L128.697 28.5674ZM129.031 30.824C129.031 31.2033 129.005 31.6244 128.949 32.0897L132.92 32.5663C132.993 31.9649 133.031 31.3834 133.031 30.824H129.031ZM128.941 32.1685C128.904 32.6322 128.838 33.1473 128.74 33.7162L132.682 34.3958C132.797 33.7273 132.88 33.0905 132.928 32.4875L128.941 32.1685ZM130.711 32.056H122.935V36.056H130.711V32.056ZM120.936 34.1205C120.985 35.6488 121.308 37.1161 122.149 38.2723L125.384 35.9197C125.201 35.6679 124.97 35.1085 124.934 33.9915L120.936 34.1205ZM122.149 38.2723C123.146 39.6433 124.671 40.152 126.231 40.152V36.152C125.529 36.152 125.411 35.9567 125.384 35.9197L122.149 38.2723ZM126.231 40.152C127.123 40.152 127.989 40.0122 128.805 39.6987L127.369 35.9653C127.075 36.0784 126.704 36.152 126.231 36.152V40.152ZM128.781 39.7075C129.448 39.4607 130.103 39.1502 130.634 38.7326L128.163 35.5874C128.097 35.6392 127.878 35.7766 127.392 35.9565L128.781 39.7075ZM127.572 37.9743L128.756 40.6303L132.409 39.0017L131.225 36.3457L127.572 37.9743ZM125.591 25.816C124.122 25.816 122.85 26.4765 122.061 27.7629L125.472 29.8531C125.495 29.8149 125.509 29.802 125.508 29.8032C125.506 29.8052 125.496 29.8132 125.482 29.821C125.468 29.8285 125.463 29.8285 125.475 29.8258C125.487 29.8228 125.524 29.816 125.591 29.816V25.816ZM122.077 27.7379C121.415 28.7835 121.139 30.0758 121.066 31.4191L125.06 31.6369C125.114 30.6336 125.308 30.1125 125.456 29.8781L122.077 27.7379ZM123.063 33.528H127.479V29.528H123.063V33.528ZM129.476 31.6331C129.546 30.2932 129.435 28.9477 128.871 27.8572L125.318 29.6948C125.394 29.8416 125.539 30.3308 125.481 31.4229L129.476 31.6331ZM128.883 27.8816C128.595 27.3041 128.167 26.7608 127.555 26.3702C126.937 25.976 126.256 25.816 125.591 25.816V29.816C125.605 29.816 125.587 29.8176 125.547 29.8067C125.505 29.7954 125.454 29.7745 125.403 29.7418C125.292 29.6712 125.275 29.6079 125.306 29.6704L128.883 27.8816ZM141.102 34.632H143.102V32.632H141.102V34.632ZM137.262 34.632V32.632H135.262V34.632H137.262ZM137.262 41V43H139.262V41H137.262ZM133.454 41H131.454V43H133.454V41ZM133.454 25V23H131.454V25H133.454ZM137.262 25H139.262V23H137.262V25ZM137.262 31.144H135.262V33.144H137.262V31.144ZM141.102 31.144V33.144H143.102V31.144H141.102ZM141.102 25V23H139.102V25H141.102ZM144.91 25H146.91V23H144.91V25ZM144.91 41V43H146.91V41H144.91ZM141.102 41H139.102V43H141.102V41ZM141.102 32.632H137.262V36.632H141.102V32.632ZM135.262 34.632V41H139.262V34.632H135.262ZM137.262 39H133.454V43H137.262V39ZM135.454 41V25H131.454V41H135.454ZM133.454 27H137.262V23H133.454V27ZM135.262 25V31.144H139.262V25H135.262ZM137.262 33.144H141.102V29.144H137.262V33.144ZM143.102 31.144V25H139.102V31.144H143.102ZM141.102 27H144.91V23H141.102V27ZM142.91 25V41H146.91V25H142.91ZM144.91 39H141.102V43H144.91V39ZM143.102 41V34.632H139.102V41H143.102ZM154.809 39.592L153.181 40.7545L153.188 40.764L153.195 40.7735L154.809 39.592ZM153.305 34.472L155.3 34.3377L155.175 32.472H153.305V34.472ZM151.481 34.472V32.472H149.481V34.472H151.481ZM151.481 41V43H153.481V41H151.481ZM147.673 41H145.673V43H147.673V41ZM147.673 25V23H145.673V25H147.673ZM151.481 25H153.481V23H151.481V25ZM151.481 31.08H149.481V33.08H151.481V31.08ZM153.337 31.08V33.08H155.165L155.329 31.2593L153.337 31.08ZM154.969 26.248L153.44 24.9588L153.432 24.9677L153.425 24.9766L154.969 26.248ZM163.641 26.824L161.955 27.8994L161.962 27.9105L163.641 26.824ZM157.401 36.744L155.528 37.4462L155.531 37.4541L155.534 37.462L157.401 36.744ZM159.993 37.768L161.001 39.4956H161.001L159.993 37.768ZM160.633 36.968L158.805 36.1557V36.1557L160.633 36.968ZM160.985 35.432L159.002 35.1677L158.998 35.2003L158.995 35.233L160.985 35.432ZM157.433 29.128L159.243 29.9796L159.247 29.9696L159.252 29.9595L157.433 29.128ZM159.097 39.384C157.515 39.384 156.8 38.9263 156.423 38.4105L153.195 40.7735C154.567 42.6471 156.711 43.384 159.097 43.384V39.384ZM156.436 38.4295C155.883 37.6542 155.437 36.3629 155.3 34.3377L151.309 34.6063C151.472 37.0184 152.029 39.1404 153.181 40.7545L156.436 38.4295ZM153.305 32.472H151.481V36.472H153.305V32.472ZM149.481 34.472V41H153.481V34.472H149.481ZM151.481 39H147.673V43H151.481V39ZM149.673 41V25H145.673V41H149.673ZM147.673 27H151.481V23H147.673V27ZM149.481 25V31.08H153.481V25H149.481ZM151.481 33.08H153.337V29.08H151.481V33.08ZM155.329 31.2593C155.502 29.3318 155.974 28.1739 156.513 27.5194L153.425 24.9766C152.172 26.4981 151.555 28.5615 151.345 30.9007L155.329 31.2593ZM156.498 27.5372C156.923 27.0336 157.672 26.616 159.161 26.616V22.616C156.895 22.616 154.85 23.2864 153.44 24.9588L156.498 27.5372ZM159.161 26.616C160.664 26.616 161.452 27.1108 161.955 27.8993L165.327 25.7487C163.953 23.5932 161.754 22.616 159.161 22.616V26.616ZM161.962 27.9105C162.606 28.9062 163.049 30.5251 163.049 33H167.049C167.049 30.1416 166.553 27.6431 165.32 25.7375L161.962 27.9105ZM163.049 33C163.049 35.6187 162.573 37.2244 161.93 38.1302C161.376 38.9103 160.55 39.384 159.097 39.384V43.384C161.611 43.384 163.761 42.4604 165.192 40.4458C166.533 38.557 167.049 35.9706 167.049 33H163.049ZM154.921 33C154.921 34.7219 155.082 36.2556 155.528 37.4462L159.274 36.0418C159.08 35.5257 158.921 34.5635 158.921 33H154.921ZM155.534 37.462C155.795 38.139 156.216 38.8026 156.88 39.2909C157.557 39.7895 158.334 39.992 159.097 39.992V35.992C159.066 35.992 159.076 35.9881 159.114 35.9996C159.154 36.0119 159.204 36.0349 159.25 36.0691C159.296 36.1025 159.316 36.1304 159.318 36.1328C159.318 36.133 159.297 36.1033 159.268 36.026L155.534 37.462ZM159.097 39.992C159.738 39.992 160.395 39.8489 161.001 39.4956L158.985 36.0404C159.027 36.0162 159.065 36.0024 159.092 35.9957C159.117 35.9894 159.122 35.992 159.097 35.992V39.992ZM161.001 39.4956C161.742 39.0629 162.188 38.3929 162.46 37.7803L158.805 36.1557C158.774 36.2257 158.762 36.2335 158.783 36.2066C158.807 36.1767 158.871 36.1071 158.985 36.0404L161.001 39.4956ZM162.46 37.7803C162.751 37.1274 162.9 36.3828 162.975 35.631L158.995 35.233C158.942 35.7612 158.856 36.0406 158.805 36.1557L162.46 37.7803ZM162.967 35.6963C163.069 34.9362 163.113 34.0294 163.113 33H159.113C159.113 33.9333 159.072 34.6478 159.002 35.1677L162.967 35.6963ZM163.113 33C163.113 31.2117 162.97 29.6331 162.535 28.4842L158.794 29.8998C158.957 30.3296 159.113 31.2896 159.113 33H163.113ZM162.535 28.4842C162.283 27.8177 161.867 27.164 161.207 26.6852C160.537 26.1989 159.774 26.008 159.033 26.008V30.008C159.064 30.008 159.052 30.0118 159.011 29.9998C158.968 29.9869 158.913 29.9621 158.858 29.9228C158.742 29.8387 158.748 29.777 158.794 29.8998L162.535 28.4842ZM159.033 26.008C158.309 26.008 157.583 26.201 156.942 26.6495C156.316 27.0874 155.895 27.6826 155.614 28.2965L159.252 29.9595C159.313 29.8267 159.328 29.8619 159.236 29.9265C159.191 29.9577 159.141 29.9814 159.094 29.9954C159.048 30.0089 159.024 30.008 159.033 30.008V26.008ZM155.623 28.2764C155.074 29.4433 154.921 31.1388 154.921 33H158.921C158.921 31.1492 159.109 30.2634 159.243 29.9796L155.623 28.2764Z" fill="black" mask="url(#path-5-outside-1_274_1222)"/>
<defs>
<linearGradient id="paint0_linear_274_1222" x1="145" y1="58" x2="145" y2="-7.5" gradientUnits="userSpaceOnUse">
<stop stop-color="#31B5FF"/>
<stop offset="1" stop-color="#14D5FF"/>
</linearGradient>
<linearGradient id="paint1_linear_274_1222" x1="131.988" y1="19.6458" x2="131.988" y2="45.625" gradientUnits="userSpaceOnUse">
<stop stop-color="#31B5FF"/>
<stop offset="0.807292" stop-color="#14D5FF"/>
</linearGradient>
</defs>
</svg>
