<svg width="263" height="58" viewBox="0 0 263 58" fill="none" xmlns="http://www.w3.org/2000/svg">
<rect x="1.5" y="1.5" width="260" height="55" rx="24.5" fill="url(#paint0_linear_274_1208)" stroke="#4E69AF" stroke-width="3"/>
<rect x="10.5" y="9.5" width="242" height="40" rx="20" fill="url(#paint1_linear_274_1208)" stroke="#A7F4F9" stroke-width="3"/>
<path d="M248.229 39.0699L240.008 46.2467C239.312 46.8543 239.742 48 240.666 48H246.854C249.464 48 251.374 45.542 250.731 43.0133L249.856 39.5765C249.672 38.854 248.791 38.5796 248.229 39.0699Z" fill="white"/>
<path d="M16.9638 13.1115L16.9638 14.5441C16.9638 15.3599 17.8882 15.8324 18.5495 15.3546L21.09 13.519L24.7431 12.031C25.5992 11.6823 25.5643 10.4582 24.6897 10.1588L22.2591 9.32689C19.6631 8.43837 16.9637 10.3677 16.9638 13.1115Z" fill="white"/>
<mask id="path-5-outside-1_274_1208" maskUnits="userSpaceOnUse" x="61" y="16" width="148" height="34" fill="black">
<rect fill="white" x="61" y="16" width="148" height="34"/>
<path d="M72.8585 22.312H67.0345V41H63.0025V18.6H76.8905V41H72.8585V22.312ZM79.7198 25H82.5677L82.9518 26.824H83.0477C83.5384 26.056 84.0824 25.5013 84.6798 25.16C85.2984 24.7973 86.0558 24.616 86.9518 24.616C88.5731 24.616 89.7891 25.2347 90.5998 26.472C91.4318 27.688 91.8478 29.7253 91.8478 32.584C91.8478 35.4427 91.3358 37.64 90.3118 39.176C89.2878 40.6907 87.8051 41.448 85.8638 41.448C85.3518 41.448 84.9144 41.4053 84.5518 41.32C84.1891 41.2347 83.8478 41.096 83.5278 40.904V47.4H79.7198V25ZM83.5278 37.416C83.7411 37.6293 83.9758 37.7893 84.2318 37.896C84.5091 38.0027 84.8611 38.056 85.2878 38.056C86.1411 38.056 86.7918 37.64 87.2398 36.808C87.6878 35.9547 87.9118 34.5147 87.9118 32.488C87.9118 30.9733 87.7411 29.8533 87.3998 29.128C87.0584 28.3813 86.4931 28.008 85.7038 28.008C84.6371 28.008 83.9118 28.6373 83.5278 29.896V37.416ZM93.4563 33C93.4563 30.1627 94.0109 28.0507 95.1203 26.664C96.2296 25.2773 97.7763 24.584 99.7603 24.584C101.894 24.584 103.483 25.288 104.528 26.696C105.574 28.104 106.096 30.2053 106.096 33C106.096 35.8587 105.542 37.9813 104.432 39.368C103.323 40.7333 101.766 41.416 99.7603 41.416C95.5576 41.416 93.4563 38.6107 93.4563 33ZM97.3923 33C97.3923 34.6 97.5736 35.8373 97.9363 36.712C98.2989 37.5867 98.9069 38.024 99.7603 38.024C100.571 38.024 101.168 37.6507 101.552 36.904C101.958 36.136 102.16 34.8347 102.16 33C102.16 31.3573 101.979 30.1093 101.616 29.256C101.254 28.4027 100.635 27.976 99.7603 27.976C99.0136 27.976 98.4269 28.36 98.0003 29.128C97.5949 29.8747 97.3923 31.1653 97.3923 33ZM121.818 44.648H119.002L118.586 41H110.042L109.626 44.648H106.842V37.512H108.378C108.506 37.2773 108.677 36.872 108.89 36.296C109.104 35.6987 109.306 34.8987 109.498 33.896C109.712 32.8933 109.893 31.656 110.042 30.184C110.192 28.712 110.266 26.984 110.266 25H119.898V37.512H121.818V44.648ZM116.09 37.704V28.392H113.658C113.616 29.16 113.552 29.992 113.466 30.888C113.402 31.784 113.306 32.6587 113.178 33.512C113.05 34.344 112.901 35.1333 112.73 35.88C112.581 36.6267 112.4 37.2347 112.186 37.704H116.09ZM122.925 33C122.925 30.1627 123.48 28.0507 124.589 26.664C125.698 25.2773 127.245 24.584 129.229 24.584C131.362 24.584 132.952 25.288 133.997 26.696C135.042 28.104 135.565 30.2053 135.565 33C135.565 35.8587 135.01 37.9813 133.901 39.368C132.792 40.7333 131.234 41.416 129.229 41.416C125.026 41.416 122.925 38.6107 122.925 33ZM126.861 33C126.861 34.6 127.042 35.8373 127.405 36.712C127.768 37.5867 128.376 38.024 129.229 38.024C130.04 38.024 130.637 37.6507 131.021 36.904C131.426 36.136 131.629 34.8347 131.629 33C131.629 31.3573 131.448 30.1093 131.085 29.256C130.722 28.4027 130.104 27.976 129.229 27.976C128.482 27.976 127.896 28.36 127.469 29.128C127.064 29.8747 126.861 31.1653 126.861 33ZM145.047 28.488H142.743C142.658 30.344 142.54 32.0507 142.391 33.608C142.242 35.1653 142.007 36.5093 141.687 37.64C141.367 38.7493 140.93 39.624 140.375 40.264C139.842 40.8827 139.138 41.192 138.263 41.192C137.73 41.192 137.271 41.1493 136.887 41.064C136.503 41 136.172 40.8827 135.895 40.712L136.343 37.384C136.855 37.5547 137.282 37.544 137.623 37.352C137.986 37.16 138.284 36.6373 138.519 35.784C138.754 34.9093 138.935 33.6187 139.063 31.912C139.212 30.2053 139.319 27.9013 139.383 25H148.855V41H145.047V28.488ZM156.651 34.504L154.315 41H150.091L153.291 33.672L154.219 32.712L152.875 31.496L150.379 25H154.411L156.555 31.496H157.643V25H161.259V31.816L162.219 31.368L164.363 25H168.395L165.739 31.496L164.683 32.52L166.027 33.8L168.971 41H164.651L162.315 34.376H161.259V41H157.643V34.056L156.651 34.504ZM178.06 34.024L178.348 31.432H178.252L177.068 34.152L172.78 41H170.22V25H174.028V32.264L173.74 34.76H173.836L174.988 32.104L179.308 25H181.868V41H178.06V34.024ZM194.258 28.488H190.738V41H186.93V28.488H183.282V25H194.258V28.488ZM199.465 37.64C199.913 37.768 200.383 37.832 200.873 37.832C201.62 37.832 202.153 37.6613 202.473 37.32C202.815 36.9787 202.985 36.4027 202.985 35.592C202.985 34.8667 202.825 34.312 202.505 33.928C202.185 33.544 201.663 33.352 200.937 33.352C200.383 33.352 199.892 33.4267 199.465 33.576V37.64ZM199.465 30.696C199.892 30.6107 200.329 30.5573 200.777 30.536C201.225 30.4933 201.631 30.472 201.993 30.472C202.889 30.472 203.647 30.6 204.265 30.856C204.905 31.0907 205.417 31.432 205.801 31.88C206.207 32.328 206.495 32.8613 206.665 33.48C206.836 34.0773 206.921 34.728 206.921 35.432C206.921 36.392 206.804 37.2347 206.569 37.96C206.356 38.6853 206.004 39.2933 205.513 39.784C205.023 40.2533 204.372 40.616 203.561 40.872C202.751 41.1067 201.759 41.224 200.585 41.224C199.476 41.224 198.527 41.2027 197.737 41.16C196.948 41.1173 196.255 41.064 195.657 41V25H199.465V30.696Z"/>
</mask>
<path d="M72.8585 22.312H67.0345V41H63.0025V18.6H76.8905V41H72.8585V22.312ZM79.7198 25H82.5677L82.9518 26.824H83.0477C83.5384 26.056 84.0824 25.5013 84.6798 25.16C85.2984 24.7973 86.0558 24.616 86.9518 24.616C88.5731 24.616 89.7891 25.2347 90.5998 26.472C91.4318 27.688 91.8478 29.7253 91.8478 32.584C91.8478 35.4427 91.3358 37.64 90.3118 39.176C89.2878 40.6907 87.8051 41.448 85.8638 41.448C85.3518 41.448 84.9144 41.4053 84.5518 41.32C84.1891 41.2347 83.8478 41.096 83.5278 40.904V47.4H79.7198V25ZM83.5278 37.416C83.7411 37.6293 83.9758 37.7893 84.2318 37.896C84.5091 38.0027 84.8611 38.056 85.2878 38.056C86.1411 38.056 86.7918 37.64 87.2398 36.808C87.6878 35.9547 87.9118 34.5147 87.9118 32.488C87.9118 30.9733 87.7411 29.8533 87.3998 29.128C87.0584 28.3813 86.4931 28.008 85.7038 28.008C84.6371 28.008 83.9118 28.6373 83.5278 29.896V37.416ZM93.4563 33C93.4563 30.1627 94.0109 28.0507 95.1203 26.664C96.2296 25.2773 97.7763 24.584 99.7603 24.584C101.894 24.584 103.483 25.288 104.528 26.696C105.574 28.104 106.096 30.2053 106.096 33C106.096 35.8587 105.542 37.9813 104.432 39.368C103.323 40.7333 101.766 41.416 99.7603 41.416C95.5576 41.416 93.4563 38.6107 93.4563 33ZM97.3923 33C97.3923 34.6 97.5736 35.8373 97.9363 36.712C98.2989 37.5867 98.9069 38.024 99.7603 38.024C100.571 38.024 101.168 37.6507 101.552 36.904C101.958 36.136 102.16 34.8347 102.16 33C102.16 31.3573 101.979 30.1093 101.616 29.256C101.254 28.4027 100.635 27.976 99.7603 27.976C99.0136 27.976 98.4269 28.36 98.0003 29.128C97.5949 29.8747 97.3923 31.1653 97.3923 33ZM121.818 44.648H119.002L118.586 41H110.042L109.626 44.648H106.842V37.512H108.378C108.506 37.2773 108.677 36.872 108.89 36.296C109.104 35.6987 109.306 34.8987 109.498 33.896C109.712 32.8933 109.893 31.656 110.042 30.184C110.192 28.712 110.266 26.984 110.266 25H119.898V37.512H121.818V44.648ZM116.09 37.704V28.392H113.658C113.616 29.16 113.552 29.992 113.466 30.888C113.402 31.784 113.306 32.6587 113.178 33.512C113.05 34.344 112.901 35.1333 112.73 35.88C112.581 36.6267 112.4 37.2347 112.186 37.704H116.09ZM122.925 33C122.925 30.1627 123.48 28.0507 124.589 26.664C125.698 25.2773 127.245 24.584 129.229 24.584C131.362 24.584 132.952 25.288 133.997 26.696C135.042 28.104 135.565 30.2053 135.565 33C135.565 35.8587 135.01 37.9813 133.901 39.368C132.792 40.7333 131.234 41.416 129.229 41.416C125.026 41.416 122.925 38.6107 122.925 33ZM126.861 33C126.861 34.6 127.042 35.8373 127.405 36.712C127.768 37.5867 128.376 38.024 129.229 38.024C130.04 38.024 130.637 37.6507 131.021 36.904C131.426 36.136 131.629 34.8347 131.629 33C131.629 31.3573 131.448 30.1093 131.085 29.256C130.722 28.4027 130.104 27.976 129.229 27.976C128.482 27.976 127.896 28.36 127.469 29.128C127.064 29.8747 126.861 31.1653 126.861 33ZM145.047 28.488H142.743C142.658 30.344 142.54 32.0507 142.391 33.608C142.242 35.1653 142.007 36.5093 141.687 37.64C141.367 38.7493 140.93 39.624 140.375 40.264C139.842 40.8827 139.138 41.192 138.263 41.192C137.73 41.192 137.271 41.1493 136.887 41.064C136.503 41 136.172 40.8827 135.895 40.712L136.343 37.384C136.855 37.5547 137.282 37.544 137.623 37.352C137.986 37.16 138.284 36.6373 138.519 35.784C138.754 34.9093 138.935 33.6187 139.063 31.912C139.212 30.2053 139.319 27.9013 139.383 25H148.855V41H145.047V28.488ZM156.651 34.504L154.315 41H150.091L153.291 33.672L154.219 32.712L152.875 31.496L150.379 25H154.411L156.555 31.496H157.643V25H161.259V31.816L162.219 31.368L164.363 25H168.395L165.739 31.496L164.683 32.52L166.027 33.8L168.971 41H164.651L162.315 34.376H161.259V41H157.643V34.056L156.651 34.504ZM178.06 34.024L178.348 31.432H178.252L177.068 34.152L172.78 41H170.22V25H174.028V32.264L173.74 34.76H173.836L174.988 32.104L179.308 25H181.868V41H178.06V34.024ZM194.258 28.488H190.738V41H186.93V28.488H183.282V25H194.258V28.488ZM199.465 37.64C199.913 37.768 200.383 37.832 200.873 37.832C201.62 37.832 202.153 37.6613 202.473 37.32C202.815 36.9787 202.985 36.4027 202.985 35.592C202.985 34.8667 202.825 34.312 202.505 33.928C202.185 33.544 201.663 33.352 200.937 33.352C200.383 33.352 199.892 33.4267 199.465 33.576V37.64ZM199.465 30.696C199.892 30.6107 200.329 30.5573 200.777 30.536C201.225 30.4933 201.631 30.472 201.993 30.472C202.889 30.472 203.647 30.6 204.265 30.856C204.905 31.0907 205.417 31.432 205.801 31.88C206.207 32.328 206.495 32.8613 206.665 33.48C206.836 34.0773 206.921 34.728 206.921 35.432C206.921 36.392 206.804 37.2347 206.569 37.96C206.356 38.6853 206.004 39.2933 205.513 39.784C205.023 40.2533 204.372 40.616 203.561 40.872C202.751 41.1067 201.759 41.224 200.585 41.224C199.476 41.224 198.527 41.2027 197.737 41.16C196.948 41.1173 196.255 41.064 195.657 41V25H199.465V30.696Z" fill="white"/>
<path d="M72.8585 22.312H74.8585V20.312H72.8585V22.312ZM67.0345 22.312V20.312H65.0345V22.312H67.0345ZM67.0345 41V43H69.0345V41H67.0345ZM63.0025 41H61.0025V43H63.0025V41ZM63.0025 18.6V16.6H61.0025V18.6H63.0025ZM76.8905 18.6H78.8905V16.6H76.8905V18.6ZM76.8905 41V43H78.8905V41H76.8905ZM72.8585 41H70.8585V43H72.8585V41ZM72.8585 20.312H67.0345V24.312H72.8585V20.312ZM65.0345 22.312V41H69.0345V22.312H65.0345ZM67.0345 39H63.0025V43H67.0345V39ZM65.0025 41V18.6H61.0025V41H65.0025ZM63.0025 20.6H76.8905V16.6H63.0025V20.6ZM74.8905 18.6V41H78.8905V18.6H74.8905ZM76.8905 39H72.8585V43H76.8905V39ZM74.8585 41V22.312H70.8585V41H74.8585ZM79.7197 25V23H77.7197V25H79.7197ZM82.5677 25L84.5248 24.588L84.1905 23H82.5677V25ZM82.9518 26.824L80.9947 27.236L81.329 28.824H82.9518V26.824ZM83.0477 26.824V28.824H84.1433L84.7331 27.9008L83.0477 26.824ZM84.6797 25.16L85.672 26.8965L85.6816 26.891L85.6912 26.8854L84.6797 25.16ZM90.5998 26.472L88.9268 27.5681L88.9378 27.5848L88.9491 27.6014L90.5998 26.472ZM90.3118 39.176L91.9687 40.2962L91.9758 40.2854L90.3118 39.176ZM84.5518 41.32L84.0937 43.2668L84.5518 41.32ZM83.5277 40.904L84.5567 39.189L81.5277 37.3716V40.904H83.5277ZM83.5277 47.4V49.4H85.5277V47.4H83.5277ZM79.7197 47.4H77.7197V49.4H79.7197V47.4ZM83.5277 37.416H81.5277V38.2444L82.1135 38.8302L83.5277 37.416ZM84.2318 37.896L83.4625 39.7422L83.488 39.7528L83.5138 39.7627L84.2318 37.896ZM87.2397 36.808L89.0007 37.7562L89.0057 37.747L89.0105 37.7377L87.2397 36.808ZM87.3997 29.128L85.5808 29.9595L85.5854 29.9696L85.5901 29.9796L87.3997 29.128ZM83.5277 29.896L81.6148 29.3124L81.5277 29.5977V29.896H83.5277ZM79.7197 27H82.5677V23H79.7197V27ZM80.6106 25.412L80.9947 27.236L84.9089 26.412L84.5248 24.588L80.6106 25.412ZM82.9518 28.824H83.0477V24.824H82.9518V28.824ZM84.7331 27.9008C85.104 27.3204 85.432 27.0336 85.672 26.8965L83.6875 23.4235C82.7328 23.969 81.9729 24.7916 81.3624 25.7472L84.7331 27.9008ZM85.6912 26.8854C85.9354 26.7423 86.3236 26.616 86.9518 26.616V22.616C85.7879 22.616 84.6615 22.8524 83.6683 23.4346L85.6912 26.8854ZM86.9518 26.616C87.9755 26.616 88.5259 26.9561 88.9268 27.5681L92.2727 25.3759C91.0523 23.5132 89.1707 22.616 86.9518 22.616V26.616ZM88.9491 27.6014C89.4231 28.2941 89.8478 29.8098 89.8478 32.584H93.8477C93.8477 29.6409 93.4404 27.0819 92.2504 25.3426L88.9491 27.6014ZM89.8478 32.584C89.8478 35.2485 89.3629 36.9937 88.6477 38.0666L91.9758 40.2854C93.3086 38.2863 93.8477 35.6368 93.8477 32.584H89.8478ZM88.6549 38.0559C88.0293 38.9811 87.1897 39.448 85.8638 39.448V43.448C88.4204 43.448 90.5462 42.4002 91.9686 40.2961L88.6549 38.0559ZM85.8638 39.448C85.453 39.448 85.1783 39.4128 85.0098 39.3732L84.0937 43.2668C84.6505 43.3979 85.2505 43.448 85.8638 43.448V39.448ZM85.0098 39.3732C84.8486 39.3352 84.6999 39.2749 84.5567 39.189L82.4988 42.619C82.9956 42.9171 83.5295 43.1341 84.0937 43.2668L85.0098 39.3732ZM81.5277 40.904V47.4H85.5277V40.904H81.5277ZM83.5277 45.4H79.7197V49.4H83.5277V45.4ZM81.7197 47.4V25H77.7197V47.4H81.7197ZM82.1135 38.8302C82.4953 39.2119 82.9449 39.5265 83.4625 39.7422L85.001 36.0498C85.0008 36.0498 85.0002 36.0495 84.9988 36.0487C84.9974 36.048 84.9946 36.0464 84.9904 36.0435C84.9823 36.038 84.9659 36.0257 84.942 36.0018L82.1135 38.8302ZM83.5138 39.7627C84.0968 39.9869 84.7137 40.056 85.2878 40.056V36.056C85.1557 36.056 85.063 36.0476 85.0034 36.0386C84.9432 36.0295 84.9299 36.0217 84.9497 36.0293L83.5138 39.7627ZM85.2878 40.056C86.0547 40.056 86.8128 39.864 87.4931 39.429C88.1628 39.0008 88.6511 38.4055 89.0007 37.7562L85.4788 35.8598C85.3804 36.0425 85.3194 36.0711 85.3384 36.059C85.341 36.0573 85.3449 36.0552 85.3493 36.0532C85.3514 36.0522 85.3532 36.0515 85.3546 36.051C85.356 36.0505 85.3567 36.0503 85.3566 36.0504C85.3565 36.0504 85.3518 36.0517 85.3413 36.0531C85.3306 36.0545 85.3131 36.056 85.2878 36.056V40.056ZM89.0105 37.7377C89.7008 36.423 89.9118 34.5563 89.9118 32.488H85.9118C85.9118 34.4731 85.6747 35.4864 85.469 35.8783L89.0105 37.7377ZM89.9118 32.488C89.9118 30.8953 89.7437 29.4118 89.2094 28.2764L85.5901 29.9796C85.7385 30.2949 85.9118 31.0513 85.9118 32.488H89.9118ZM89.2187 28.2965C88.9254 27.6549 88.4777 27.0522 87.8219 26.6191C87.161 26.1827 86.4241 26.008 85.7038 26.008V30.008C85.7433 30.008 85.746 30.0126 85.7224 30.0061C85.6966 29.999 85.6582 29.9837 85.6176 29.9569C85.5775 29.9304 85.5546 29.9055 85.5473 29.8964C85.5414 29.8891 85.5558 29.9049 85.5808 29.9595L89.2187 28.2965ZM85.7038 26.008C84.7461 26.008 83.8165 26.3035 83.049 26.9694C82.3158 27.6056 81.8773 28.452 81.6148 29.3124L85.4407 30.4796C85.5622 30.0813 85.6784 29.9838 85.6705 29.9906C85.6636 29.9966 85.647 30.0072 85.6305 30.013C85.617 30.0177 85.6352 30.008 85.7038 30.008V26.008ZM81.5277 29.896V37.416H85.5277V29.896H81.5277ZM95.1202 26.664L96.682 27.9134H96.682L95.1202 26.664ZM104.528 26.696L106.134 25.5038L104.528 26.696ZM104.432 39.368L105.984 40.6292L105.989 40.6233L105.994 40.6174L104.432 39.368ZM97.9362 36.712L96.0888 37.478L97.9362 36.712ZM101.552 36.904L99.7835 35.9705L99.7785 35.9799L99.7737 35.9893L101.552 36.904ZM101.616 29.256L99.7756 30.0383V30.0383L101.616 29.256ZM98.0003 29.128L96.2519 28.1567L96.2472 28.1652L96.2425 28.1738L98.0003 29.128ZM95.4563 33C95.4563 30.3633 95.9821 28.7883 96.682 27.9134L93.5585 25.4146C92.0398 27.3131 91.4562 29.962 91.4562 33H95.4563ZM96.682 27.9134C97.364 27.0609 98.3029 26.584 99.7603 26.584V22.584C97.2496 22.584 95.0952 23.4937 93.5585 25.4146L96.682 27.9134ZM99.7603 26.584C101.414 26.584 102.337 27.1003 102.922 27.8882L106.134 25.5038C104.628 23.4757 102.373 22.584 99.7603 22.584V26.584ZM102.922 27.8882C103.6 28.8007 104.096 30.3986 104.096 33H108.096C108.096 30.0121 107.547 27.4073 106.134 25.5038L102.922 27.8882ZM104.096 33C104.096 35.6623 103.569 37.2458 102.871 38.1186L105.994 40.6174C107.514 38.7169 108.096 36.055 108.096 33H104.096ZM102.88 38.1068C102.207 38.9358 101.258 39.416 99.7603 39.416V43.416C102.273 43.416 104.439 42.5309 105.984 40.6292L102.88 38.1068ZM99.7603 39.416C98.1479 39.416 97.2288 38.9084 96.633 38.113C95.9558 37.2089 95.4563 35.6134 95.4563 33H91.4562C91.4562 35.9973 92.0073 38.6097 93.4315 40.511C94.9371 42.521 97.17 43.416 99.7603 43.416V39.416ZM95.3923 33C95.3923 34.7065 95.5791 36.2489 96.0888 37.478L99.7837 35.946C99.5681 35.4258 99.3923 34.4935 99.3923 33H95.3923ZM96.0888 37.478C96.3752 38.1689 96.8202 38.8332 97.4964 39.3196C98.1868 39.8162 98.9752 40.024 99.7603 40.024V36.024C99.7184 36.024 99.7157 36.0188 99.7397 36.026C99.7512 36.0294 99.7665 36.035 99.7838 36.0435C99.8012 36.0521 99.8176 36.062 99.8321 36.0724C99.8627 36.0944 99.8711 36.1087 99.8621 36.0965C99.8516 36.0823 99.8218 36.0377 99.7837 35.946L96.0888 37.478ZM99.7603 40.024C100.483 40.024 101.214 39.8539 101.876 39.44C102.534 39.0286 103.006 38.4506 103.331 37.8187L99.7737 35.9893C99.743 36.049 99.7224 36.0732 99.72 36.076C99.7188 36.0774 99.7213 36.0743 99.7281 36.0685C99.7349 36.0627 99.7444 36.0554 99.7563 36.048C99.7682 36.0406 99.7803 36.0343 99.7917 36.0294C99.803 36.0245 99.8114 36.0219 99.8157 36.0208C99.8246 36.0184 99.8091 36.024 99.7603 36.024V40.024ZM103.321 37.8375C103.971 36.6057 104.16 34.8745 104.16 33H100.16C100.16 34.7948 99.944 35.6663 99.7835 35.9705L103.321 37.8375ZM104.16 33C104.16 31.264 103.977 29.6965 103.457 28.4737L99.7756 30.0383C99.9812 30.5221 100.16 31.4506 100.16 33H104.16ZM103.457 28.4737C103.162 27.7796 102.703 27.1236 102.016 26.6496C101.32 26.17 100.535 25.976 99.7603 25.976V29.976C99.8162 29.976 99.8317 29.9827 99.8188 29.979C99.8126 29.9773 99.8016 29.9736 99.7874 29.9669C99.7731 29.9602 99.7586 29.9519 99.7448 29.9424C99.731 29.9329 99.7208 29.9241 99.714 29.9177C99.7074 29.9113 99.706 29.9089 99.709 29.9129C99.7153 29.9211 99.7412 29.9573 99.7756 30.0383L103.457 28.4737ZM99.7603 25.976C98.1457 25.976 96.9568 26.888 96.2519 28.1567L99.7486 30.0993C99.8434 29.9285 99.8937 29.9124 99.8556 29.9374C99.8369 29.9496 99.8112 29.962 99.7838 29.9699C99.7573 29.9775 99.7466 29.976 99.7603 29.976V25.976ZM96.2425 28.1738C95.5787 29.3967 95.3923 31.1341 95.3923 33H99.3923C99.3923 31.1966 99.6111 30.3527 99.758 30.0822L96.2425 28.1738ZM121.818 44.648V46.648H123.818V44.648H121.818ZM119.002 44.648L117.015 44.8746L117.217 46.648H119.002V44.648ZM118.586 41L120.573 40.7734L120.371 39H118.586V41ZM110.042 41V39H108.257L108.055 40.7734L110.042 41ZM109.626 44.648V46.648H111.411L111.613 44.8746L109.626 44.648ZM106.842 44.648H104.842V46.648H106.842V44.648ZM106.842 37.512V35.512H104.842V37.512H106.842ZM108.378 37.512V39.512H109.566L110.134 38.4697L108.378 37.512ZM108.89 36.296L110.766 36.9906L110.77 36.9797L110.774 36.9687L108.89 36.296ZM109.498 33.896L107.542 33.4798L107.538 33.4998L107.534 33.5199L109.498 33.896ZM110.042 30.184L108.052 29.9821L110.042 30.184ZM110.266 25V23H108.266V25H110.266ZM119.898 25H121.898V23H119.898V25ZM119.898 37.512H117.898V39.512H119.898V37.512ZM121.818 37.512H123.818V35.512H121.818V37.512ZM116.09 37.704V39.704H118.09V37.704H116.09ZM116.09 28.392H118.09V26.392H116.09V28.392ZM113.658 28.392V26.392H111.766L111.661 28.2811L113.658 28.392ZM113.466 30.888L111.475 30.6984L111.473 30.7219L111.471 30.7455L113.466 30.888ZM113.178 33.512L115.155 33.8161L115.156 33.8087L113.178 33.512ZM112.73 35.88L110.781 35.4343L110.774 35.461L110.769 35.4878L112.73 35.88ZM112.186 37.704L110.366 36.8764L109.08 39.704H112.186V37.704ZM121.818 42.648H119.002V46.648H121.818V42.648ZM120.989 44.4214L120.573 40.7734L116.599 41.2266L117.015 44.8746L120.989 44.4214ZM118.586 39H110.042V43H118.586V39ZM108.055 40.7734L107.639 44.4214L111.613 44.8746L112.029 41.2266L108.055 40.7734ZM109.626 42.648H106.842V46.648H109.626V42.648ZM108.842 44.648V37.512H104.842V44.648H108.842ZM106.842 39.512H108.378V35.512H106.842V39.512ZM110.134 38.4697C110.338 38.0966 110.551 37.5716 110.766 36.9906L107.015 35.6014C106.803 36.1724 106.675 36.4581 106.622 36.5543L110.134 38.4697ZM110.774 36.9687C111.036 36.2347 111.261 35.3228 111.463 34.2721L107.534 33.5199C107.351 34.4745 107.171 35.1627 107.007 35.6233L110.774 36.9687ZM111.454 34.3122C111.688 33.2153 111.878 31.9013 112.032 30.3859L108.052 29.9821C107.908 31.4107 107.735 32.5713 107.542 33.4798L111.454 34.3122ZM112.032 30.3859C112.19 28.8286 112.266 27.0303 112.266 25H108.266C108.266 26.9377 108.193 28.5954 108.052 29.9821L112.032 30.3859ZM110.266 27H119.898V23H110.266V27ZM117.898 25V37.512H121.898V25H117.898ZM119.898 39.512H121.818V35.512H119.898V39.512ZM119.818 37.512V44.648H123.818V37.512H119.818ZM118.09 37.704V28.392H114.09V37.704H118.09ZM116.09 26.392H113.658V30.392H116.09V26.392ZM111.661 28.2811C111.62 29.0188 111.559 29.8243 111.475 30.6984L115.457 31.0776C115.545 30.1597 115.611 29.3012 115.655 28.5029L111.661 28.2811ZM111.471 30.7455C111.411 31.592 111.32 32.4152 111.2 33.2153L115.156 33.8087C115.292 32.9022 115.394 31.976 115.461 31.0305L111.471 30.7455ZM111.202 33.2079C111.08 33.997 110.94 34.7388 110.781 35.4343L114.68 36.3256C114.862 35.5278 115.02 34.691 115.155 33.8161L111.202 33.2079ZM110.769 35.4878C110.637 36.1484 110.493 36.5953 110.366 36.8764L114.007 38.5316C114.306 37.8741 114.525 37.105 114.691 36.2722L110.769 35.4878ZM112.186 39.704H116.09V35.704H112.186V39.704ZM124.589 26.664L126.151 27.9134H126.151L124.589 26.664ZM133.997 26.696L135.603 25.5038L133.997 26.696ZM133.901 39.368L135.453 40.6292L135.458 40.6233L135.463 40.6174L133.901 39.368ZM127.405 36.712L125.558 37.478L127.405 36.712ZM131.021 36.904L129.252 35.9705L129.247 35.9799L129.242 35.9893L131.021 36.904ZM131.085 29.256L129.244 30.0383V30.0383L131.085 29.256ZM127.469 29.128L125.721 28.1567L125.716 28.1652L125.711 28.1738L127.469 29.128ZM124.925 33C124.925 30.3633 125.451 28.7883 126.151 27.9134L123.027 25.4146C121.509 27.3131 120.925 29.962 120.925 33H124.925ZM126.151 27.9134C126.833 27.0609 127.772 26.584 129.229 26.584V22.584C126.718 22.584 124.564 23.4937 123.027 25.4146L126.151 27.9134ZM129.229 26.584C130.883 26.584 131.806 27.1003 132.391 27.8882L135.603 25.5038C134.097 23.4757 131.842 22.584 129.229 22.584V26.584ZM132.391 27.8882C133.069 28.8007 133.565 30.3986 133.565 33H137.565C137.565 30.0121 137.016 27.4073 135.603 25.5038L132.391 27.8882ZM133.565 33C133.565 35.6623 133.038 37.2458 132.339 38.1186L135.463 40.6174C136.983 38.7169 137.565 36.055 137.565 33H133.565ZM132.349 38.1068C131.675 38.9358 130.727 39.416 129.229 39.416V43.416C131.742 43.416 133.908 42.5309 135.453 40.6292L132.349 38.1068ZM129.229 39.416C127.617 39.416 126.698 38.9084 126.102 38.113C125.425 37.2089 124.925 35.6134 124.925 33H120.925C120.925 35.9973 121.476 38.6097 122.9 40.511C124.406 42.521 126.639 43.416 129.229 43.416V39.416ZM124.861 33C124.861 34.7065 125.048 36.2489 125.558 37.478L129.252 35.946C129.037 35.4258 128.861 34.4935 128.861 33H124.861ZM125.558 37.478C125.844 38.1689 126.289 38.8332 126.965 39.3196C127.656 39.8162 128.444 40.024 129.229 40.024V36.024C129.187 36.024 129.184 36.0188 129.208 36.026C129.22 36.0294 129.235 36.035 129.253 36.0435C129.27 36.0521 129.286 36.062 129.301 36.0724C129.331 36.0944 129.34 36.1087 129.331 36.0965C129.32 36.0823 129.291 36.0377 129.252 35.946L125.558 37.478ZM129.229 40.024C129.951 40.024 130.683 39.8539 131.345 39.44C132.003 39.0286 132.475 38.4506 132.8 37.8187L129.242 35.9893C129.212 36.049 129.191 36.0732 129.189 36.076C129.188 36.0774 129.19 36.0743 129.197 36.0685C129.204 36.0627 129.213 36.0554 129.225 36.048C129.237 36.0406 129.249 36.0343 129.26 36.0294C129.272 36.0245 129.28 36.0219 129.284 36.0208C129.293 36.0184 129.278 36.024 129.229 36.024V40.024ZM132.79 37.8375C133.44 36.6057 133.629 34.8745 133.629 33H129.629C129.629 34.7948 129.413 35.6663 129.252 35.9705L132.79 37.8375ZM133.629 33C133.629 31.264 133.445 29.6965 132.926 28.4737L129.244 30.0383C129.45 30.5221 129.629 31.4506 129.629 33H133.629ZM132.926 28.4737C132.631 27.7796 132.172 27.1236 131.484 26.6496C130.789 26.17 130.004 25.976 129.229 25.976V29.976C129.285 29.976 129.3 29.9827 129.288 29.979C129.281 29.9773 129.27 29.9736 129.256 29.9669C129.242 29.9602 129.227 29.9519 129.214 29.9424C129.2 29.9329 129.19 29.9241 129.183 29.9177C129.176 29.9113 129.175 29.9089 129.178 29.9129C129.184 29.9211 129.21 29.9573 129.244 30.0383L132.926 28.4737ZM129.229 25.976C127.614 25.976 126.426 26.888 125.721 28.1567L129.217 30.0993C129.312 29.9285 129.362 29.9124 129.324 29.9374C129.306 29.9496 129.28 29.962 129.253 29.9699C129.226 29.9775 129.215 29.976 129.229 29.976V25.976ZM125.711 28.1738C125.047 29.3967 124.861 31.1341 124.861 33H128.861C128.861 31.1966 129.08 30.3527 129.227 30.0822L125.711 28.1738ZM145.047 28.488H147.047V26.488H145.047V28.488ZM142.743 28.488V26.488H140.833L140.745 28.3961L142.743 28.488ZM142.391 33.608L144.382 33.7989L142.391 33.608ZM141.687 37.64L143.609 38.1943L143.611 38.1846L141.687 37.64ZM140.375 40.264L138.864 38.9541L138.86 38.9581L140.375 40.264ZM136.887 41.064L137.321 39.1116L137.269 39.1L137.216 39.0912L136.887 41.064ZM135.895 40.712L133.913 40.4452L133.739 41.7338L134.847 42.4153L135.895 40.712ZM136.343 37.384L136.975 35.4866L134.683 34.7226L134.361 37.1172L136.343 37.384ZM137.623 37.352L136.687 35.5844L136.665 35.5964L136.642 35.6088L137.623 37.352ZM138.519 35.784L140.447 36.3143L140.451 36.3023L138.519 35.784ZM139.063 31.912L137.071 31.7377L137.07 31.75L137.069 31.7624L139.063 31.912ZM139.383 25V23H137.427L137.383 24.9559L139.383 25ZM148.855 25H150.855V23H148.855V25ZM148.855 41V43H150.855V41H148.855ZM145.047 41H143.047V43H145.047V41ZM145.047 26.488H142.743V30.488H145.047V26.488ZM140.745 28.3961C140.661 30.225 140.546 31.8981 140.4 33.4171L144.382 33.7989C144.535 32.2032 144.654 30.463 144.741 28.5799L140.745 28.3961ZM140.4 33.4171C140.259 34.8914 140.041 36.1111 139.763 37.0954L143.611 38.1846C143.973 36.9076 144.225 35.4393 144.382 33.7989L140.4 33.4171ZM139.765 37.0857C139.498 38.0119 139.173 38.5977 138.864 38.9541L141.886 41.5739C142.687 40.6503 143.236 39.4867 143.609 38.1943L139.765 37.0857ZM138.86 38.9581C138.736 39.1019 138.603 39.192 138.263 39.192V43.192C139.673 43.192 140.947 42.6635 141.89 41.5699L138.86 38.9581ZM138.263 39.192C137.828 39.192 137.522 39.1564 137.321 39.1116L136.453 43.0164C137.02 43.1423 137.632 43.192 138.263 43.192V39.192ZM137.216 39.0912C137.038 39.0616 136.962 39.0202 136.943 39.0087L134.847 42.4153C135.383 42.7452 135.968 42.9384 136.558 43.0368L137.216 39.0912ZM137.877 40.9788L138.325 37.6508L134.361 37.1172L133.913 40.4452L137.877 40.9788ZM135.711 39.2814C136.548 39.5605 137.606 39.6563 138.604 39.0951L136.642 35.6088C136.781 35.5307 136.914 35.5067 136.997 35.5046C137.067 35.5029 137.067 35.5172 136.975 35.4866L135.711 39.2814ZM138.559 39.1196C139.197 38.7817 139.601 38.254 139.855 37.8083C140.117 37.3509 140.304 36.8343 140.447 36.3143L136.591 35.2537C136.546 35.4142 136.504 35.5412 136.466 35.6392C136.428 35.7382 136.398 35.7963 136.383 35.8237C136.366 35.8522 136.374 35.8323 136.415 35.7876C136.458 35.7416 136.546 35.6595 136.687 35.5844L138.559 39.1196ZM140.451 36.3023C140.735 35.2437 140.927 33.8037 141.057 32.0616L137.069 31.7624C136.943 33.4336 136.773 34.575 136.587 35.2657L140.451 36.3023ZM141.055 32.0863C141.21 30.3169 141.318 27.9636 141.383 25.0441L137.383 24.9559C137.32 27.8391 137.214 30.0938 137.071 31.7377L141.055 32.0863ZM139.383 27H148.855V23H139.383V27ZM146.855 25V41H150.855V25H146.855ZM148.855 39H145.047V43H148.855V39ZM147.047 41V28.488H143.047V41H147.047ZM156.651 34.504L155.828 32.6813L155.055 33.03L154.769 33.8272L156.651 34.504ZM154.315 41V43H155.721L156.197 41.6768L154.315 41ZM150.091 41L148.258 40.1996L147.035 43H150.091V41ZM153.291 33.672L151.853 32.282L151.602 32.5412L151.458 32.8716L153.291 33.672ZM154.219 32.712L155.657 34.102L157.093 32.6158L155.561 31.2289L154.219 32.712ZM152.875 31.496L151.008 32.2133L151.179 32.6589L151.533 32.9791L152.875 31.496ZM150.379 25V23H147.468L148.512 25.7173L150.379 25ZM154.411 25L156.31 24.3732L155.857 23H154.411V25ZM156.555 31.496L154.656 32.1228L155.109 33.496H156.555V31.496ZM157.643 31.496V33.496H159.643V31.496H157.643ZM157.643 25V23H155.643V25H157.643ZM161.259 25H163.259V23H161.259V25ZM161.259 31.816H159.259V34.9564L162.105 33.6284L161.259 31.816ZM162.219 31.368L163.065 33.1804L163.841 32.8181L164.114 32.0062L162.219 31.368ZM164.363 25V23H162.926L162.467 24.3618L164.363 25ZM168.395 25L170.246 25.7569L171.373 23H168.395V25ZM165.739 31.496L167.131 32.9318L167.432 32.6404L167.59 32.2529L165.739 31.496ZM164.683 32.52L163.29 31.0842L161.796 32.533L163.303 33.9683L164.683 32.52ZM166.027 33.8L167.878 33.0431L167.716 32.6469L167.406 32.3517L166.027 33.8ZM168.971 41V43H171.949L170.822 40.2431L168.971 41ZM164.651 41L162.765 41.6652L163.235 43H164.651V41ZM162.315 34.376L164.201 33.7108L163.73 32.376H162.315V34.376ZM161.259 34.376V32.376H159.259V34.376H161.259ZM161.259 41V43H163.259V41H161.259ZM157.643 41H155.643V43H157.643V41ZM157.643 34.056H159.643V30.9583L156.82 32.2333L157.643 34.056ZM154.769 33.8272L152.433 40.3232L156.197 41.6768L158.533 35.1808L154.769 33.8272ZM154.315 39H150.091V43H154.315V39ZM151.924 41.8004L155.124 34.4724L151.458 32.8716L148.258 40.1996L151.924 41.8004ZM154.729 35.062L155.657 34.102L152.781 31.322L151.853 32.282L154.729 35.062ZM155.561 31.2289L154.217 30.0129L151.533 32.9791L152.877 34.1951L155.561 31.2289ZM154.742 30.7787L152.246 24.2827L148.512 25.7173L151.008 32.2133L154.742 30.7787ZM150.379 27H154.411V23H150.379V27ZM152.512 25.6268L154.656 32.1228L158.454 30.8692L156.31 24.3732L152.512 25.6268ZM156.555 33.496H157.643V29.496H156.555V33.496ZM159.643 31.496V25H155.643V31.496H159.643ZM157.643 27H161.259V23H157.643V27ZM159.259 25V31.816H163.259V25H159.259ZM162.105 33.6284L163.065 33.1804L161.373 29.5556L160.413 30.0036L162.105 33.6284ZM164.114 32.0062L166.258 25.6382L162.467 24.3618L160.323 30.7298L164.114 32.0062ZM164.363 27H168.395V23H164.363V27ZM166.544 24.2431L163.888 30.7391L167.59 32.2529L170.246 25.7569L166.544 24.2431ZM164.346 30.0602L163.29 31.0842L166.075 33.9558L167.131 32.9318L164.346 30.0602ZM163.303 33.9683L164.647 35.2483L167.406 32.3517L166.062 31.0717L163.303 33.9683ZM164.176 34.5569L167.12 41.7569L170.822 40.2431L167.878 33.0431L164.176 34.5569ZM168.971 39H164.651V43H168.971V39ZM166.537 40.3348L164.201 33.7108L160.429 35.0412L162.765 41.6652L166.537 40.3348ZM162.315 32.376H161.259V36.376H162.315V32.376ZM159.259 34.376V41H163.259V34.376H159.259ZM161.259 39H157.643V43H161.259V39ZM159.643 41V34.056H155.643V41H159.643ZM156.82 32.2333L155.828 32.6813L157.474 36.3267L158.466 35.8787L156.82 32.2333ZM178.06 34.024L176.072 33.8031L176.06 33.9132V34.024H178.06ZM178.348 31.432L180.336 31.6529L180.582 29.432H178.348V31.432ZM178.252 31.432V29.432H176.941L176.418 30.6338L178.252 31.432ZM177.068 34.152L178.763 35.2134L178.842 35.087L178.902 34.9502L177.068 34.152ZM172.78 41V43H173.887L174.475 42.0614L172.78 41ZM170.22 41H168.22V43H170.22V41ZM170.22 25V23H168.22V25H170.22ZM174.028 25H176.028V23H174.028V25ZM174.028 32.264L176.015 32.4932L176.028 32.379V32.264H174.028ZM173.74 34.76L171.753 34.5308L171.496 36.76H173.74V34.76ZM173.836 34.76V36.76H175.148L175.671 35.5558L173.836 34.76ZM174.988 32.104L173.279 31.0648L173.208 31.1822L173.153 31.3082L174.988 32.104ZM179.308 25V23H178.183L177.599 23.9608L179.308 25ZM181.868 25H183.868V23H181.868V25ZM181.868 41V43H183.868V41H181.868ZM178.06 41H176.06V43H178.06V41ZM180.048 34.2449L180.336 31.6529L176.36 31.2111L176.072 33.8031L180.048 34.2449ZM178.348 29.432H178.252V33.432H178.348V29.432ZM176.418 30.6338L175.234 33.3538L178.902 34.9502L180.086 32.2302L176.418 30.6338ZM175.373 33.0906L171.085 39.9386L174.475 42.0614L178.763 35.2134L175.373 33.0906ZM172.78 39H170.22V43H172.78V39ZM172.22 41V25H168.22V41H172.22ZM170.22 27H174.028V23H170.22V27ZM172.028 25V32.264H176.028V25H172.028ZM172.041 32.0348L171.753 34.5308L175.727 34.9892L176.015 32.4932L172.041 32.0348ZM173.74 36.76H173.836V32.76H173.74V36.76ZM175.671 35.5558L176.823 32.8998L173.153 31.3082L172.001 33.9642L175.671 35.5558ZM176.697 33.1432L181.017 26.0392L177.599 23.9608L173.279 31.0648L176.697 33.1432ZM179.308 27H181.868V23H179.308V27ZM179.868 25V41H183.868V25H179.868ZM181.868 39H178.06V43H181.868V39ZM180.06 41V34.024H176.06V41H180.06ZM194.258 28.488V30.488H196.258V28.488H194.258ZM190.738 28.488V26.488H188.738V28.488H190.738ZM190.738 41V43H192.738V41H190.738ZM186.93 41H184.93V43H186.93V41ZM186.93 28.488H188.93V26.488H186.93V28.488ZM183.282 28.488H181.282V30.488H183.282V28.488ZM183.282 25V23H181.282V25H183.282ZM194.258 25H196.258V23H194.258V25ZM194.258 26.488H190.738V30.488H194.258V26.488ZM188.738 28.488V41H192.738V28.488H188.738ZM190.738 39H186.93V43H190.738V39ZM188.93 41V28.488H184.93V41H188.93ZM186.93 26.488H183.282V30.488H186.93V26.488ZM185.282 28.488V25H181.282V28.488H185.282ZM183.282 27H194.258V23H183.282V27ZM192.258 25V28.488H196.258V25H192.258ZM199.465 37.64H197.465V39.1486L198.916 39.563L199.465 37.64ZM202.473 37.32L201.059 35.9058L201.036 35.9286L201.014 35.9521L202.473 37.32ZM202.505 33.928L200.969 35.2084L202.505 33.928ZM199.465 33.576L198.805 31.6883L197.465 32.157V33.576H199.465ZM199.465 30.696H197.465V33.1356L199.857 32.6572L199.465 30.696ZM200.777 30.536L200.872 32.5337L200.92 32.5315L200.967 32.527L200.777 30.536ZM204.265 30.856L203.501 32.704L203.538 32.7197L203.577 32.7338L204.265 30.856ZM205.801 31.88L204.283 33.1816L204.3 33.2019L204.318 33.2218L205.801 31.88ZM206.665 33.48L204.737 34.0119L204.74 34.0207L204.742 34.0294L206.665 33.48ZM206.569 37.96L204.666 37.3444L204.658 37.3699L204.651 37.3957L206.569 37.96ZM205.513 39.784L206.896 41.2293L206.912 41.2139L206.927 41.1982L205.513 39.784ZM203.561 40.872L204.117 42.7931L204.141 42.7864L204.164 42.7792L203.561 40.872ZM197.737 41.16L197.629 43.1571L197.737 41.16ZM195.657 41H193.657V42.7972L195.444 42.9886L195.657 41ZM195.657 25V23H193.657V25H195.657ZM199.465 25H201.465V23H199.465V25ZM198.916 39.563C199.552 39.7447 200.207 39.832 200.873 39.832V35.832C200.559 35.832 200.275 35.7913 200.015 35.717L198.916 39.563ZM200.873 39.832C201.852 39.832 203.06 39.6183 203.932 38.6879L201.014 35.9521C201.069 35.8941 201.122 35.8542 201.164 35.829C201.205 35.8046 201.228 35.7977 201.224 35.7992C201.218 35.8008 201.189 35.8095 201.129 35.8175C201.069 35.8256 200.985 35.832 200.873 35.832V39.832ZM203.887 38.7342C204.79 37.8316 204.985 36.5935 204.985 35.592H200.985C200.985 35.8674 200.955 36.0118 200.94 36.0638C200.926 36.1092 200.943 36.0217 201.059 35.9058L203.887 38.7342ZM204.985 35.592C204.985 34.6047 204.771 33.5226 204.042 32.6476L200.969 35.2084C200.926 35.1572 200.929 35.1341 200.944 35.1863C200.96 35.2443 200.985 35.3711 200.985 35.592H204.985ZM204.042 32.6476C203.195 31.6312 201.98 31.352 200.937 31.352V35.352C201.031 35.352 201.097 35.3583 201.139 35.3647C201.181 35.3712 201.193 35.3768 201.184 35.3733C201.173 35.3695 201.141 35.3564 201.099 35.3271C201.055 35.2972 201.009 35.2572 200.969 35.2084L204.042 32.6476ZM200.937 31.352C200.207 31.352 199.486 31.4499 198.805 31.6883L200.126 35.4637C200.298 35.4034 200.558 35.352 200.937 35.352V31.352ZM197.465 33.576V37.64H201.465V33.576H197.465ZM199.857 32.6572C200.183 32.592 200.521 32.5505 200.872 32.5337L200.682 28.5383C200.137 28.5642 199.601 28.6293 199.073 28.7348L199.857 32.6572ZM200.967 32.527C201.366 32.489 201.707 32.472 201.993 32.472V28.472C201.554 28.472 201.084 28.4977 200.588 28.545L200.967 32.527ZM201.993 32.472C202.711 32.472 203.191 32.5761 203.501 32.704L205.03 29.008C204.102 28.6239 203.068 28.472 201.993 28.472V32.472ZM203.577 32.7338C203.946 32.869 204.154 33.0314 204.283 33.1816L207.32 30.5784C206.68 29.8326 205.865 29.3123 204.954 28.9782L203.577 32.7338ZM204.318 33.2218C204.501 33.4239 204.644 33.675 204.737 34.0119L208.593 32.9481C208.345 32.0477 207.912 31.2321 207.284 30.5382L204.318 33.2218ZM204.742 34.0294C204.856 34.4262 204.921 34.8895 204.921 35.432H208.921C208.921 34.5665 208.816 33.7285 208.588 32.9306L204.742 34.0294ZM204.921 35.432C204.921 36.2346 204.823 36.8617 204.666 37.3444L208.472 38.5756C208.785 37.6076 208.921 36.5494 208.921 35.432H204.921ZM204.651 37.3957C204.523 37.8294 204.332 38.1366 204.099 38.3698L206.927 41.1982C207.676 40.4501 208.189 39.5412 208.488 38.5243L204.651 37.3957ZM204.131 38.3387C203.91 38.5499 203.549 38.7784 202.959 38.9648L204.164 42.7792C205.194 42.4536 206.135 41.9568 206.896 41.2293L204.131 38.3387ZM203.005 38.9509C202.43 39.1173 201.638 39.224 200.585 39.224V43.224C201.879 43.224 203.071 43.096 204.117 42.7931L203.005 38.9509ZM200.585 39.224C199.499 39.224 198.588 39.203 197.845 39.1629L197.629 43.1571C198.466 43.2023 199.453 43.224 200.585 43.224V39.224ZM197.845 39.1629C197.081 39.1216 196.424 39.0707 195.87 39.0114L195.444 42.9886C196.085 43.0573 196.815 43.1131 197.629 43.1571L197.845 39.1629ZM197.657 41V25H193.657V41H197.657ZM195.657 27H199.465V23H195.657V27ZM197.465 25V30.696H201.465V25H197.465Z" fill="black" mask="url(#path-5-outside-1_274_1208)"/>
<defs>
<linearGradient id="paint0_linear_274_1208" x1="145" y1="58" x2="145" y2="-7.5" gradientUnits="userSpaceOnUse">
<stop stop-color="#31B5FF"/>
<stop offset="1" stop-color="#14D5FF"/>
</linearGradient>
<linearGradient id="paint1_linear_274_1208" x1="131.988" y1="19.6458" x2="131.988" y2="45.625" gradientUnits="userSpaceOnUse">
<stop stop-color="#31B5FF"/>
<stop offset="0.807292" stop-color="#14D5FF"/>
</linearGradient>
</defs>
</svg>
