<svg width="38" height="37" viewBox="0 0 38 37" fill="none" xmlns="http://www.w3.org/2000/svg">
<path d="M2.08752 17.2039L2.09016 17.1676V17.1311V11.3321C2.09016 9.64997 2.93602 8.08056 4.34111 7.15569L10.0795 3.37851C11.9768 2.12963 14.4776 2.31661 16.1681 3.83374L21.8828 8.96232C23.9938 10.8568 27.0393 11.2901 29.5949 10.0596L30.2987 9.72078C32.2509 8.78079 34.595 9.34105 35.9112 11.0623C36.5951 11.9565 36.9247 13.0718 36.8371 14.1941L35.5574 30.5742C35.4963 31.3558 35.2502 32.1117 34.8393 32.7793C33.9399 34.2409 32.3467 35.1311 30.6306 35.1311H5.74641C4.23131 35.1311 2.81262 34.3878 1.95021 33.1421C1.3502 32.2754 1.06481 31.2295 1.14147 30.1782L2.08752 17.2039Z" fill="#BBD1E7" fill-opacity="0.7" stroke="#092D4D" stroke-width="2"/>
<path d="M27.4096 28.9672C34.3867 25.7279 35.7156 14.7432 35.508 9.65576L37.3769 12.459L37.0654 16.5082L36.131 29.2787L35.1966 33.3279L33.0162 35.5082L24.6064 35.8197H11.5244L5.29492 35.1967L16.485 34.1795C17.7694 34.0627 19.7845 33.0266 20.881 32.3475C22.1591 31.556 24.2135 30.4511 27.4096 28.9672Z" fill="#96BBE0" fill-opacity="0.8"/>
<path d="M3.83706 8.97161L11.4581 4.30067C12.6027 3.59912 14.0741 3.74346 15.0606 4.65407L17.4422 6.85245L14.3149 5.40907C13.7355 5.14167 13.0633 5.16678 12.5055 5.47668L5.4301 9.40743C5.14263 9.56713 4.92547 9.8288 4.82148 10.1408L4.69596 10.5173C4.68146 10.5608 4.64076 10.5902 4.59492 10.5902C3.99009 10.5902 3.53645 10.0368 3.65507 9.44372L3.7143 9.14756C3.72894 9.07438 3.77342 9.01061 3.83706 8.97161Z" fill="#D6F5FF"/>
<path d="M8.74852 13.6482C4.35548 13.9059 3.52451 23.5986 7.86309 24.3347V24.3347C9.79646 24.6627 12.4117 23.8183 13.2602 18.8173C13.6819 16.3316 12.2217 14.7536 9.80609 13.8293C9.42705 13.6843 9.07495 13.6291 8.74852 13.6482Z" fill="white"/>
<path d="M18.0326 13.2714C11.6287 13.3068 8.28487 25.1334 14.5986 26.2046C16.532 26.5326 22.0044 24.7363 22.8527 19.7363C23.2744 17.2511 21.7009 14.3958 19.2852 13.4717C18.919 13.3316 18.4943 13.2689 18.0326 13.2714Z" fill="white"/>
<path d="M8.74852 13.6482C4.35548 13.9059 3.52451 23.5986 7.86309 24.3347V24.3347C9.79646 24.6627 12.4117 23.8183 13.2602 18.8173C13.6819 16.3316 12.2217 14.7536 9.80609 13.8293C9.42705 13.6843 9.07495 13.6291 8.74852 13.6482Z" fill="white"/>
<path d="M18.0326 13.2714C11.6287 13.3068 8.28487 25.1334 14.5986 26.2046C16.532 26.5326 22.0044 24.7363 22.8527 19.7363C23.2744 17.2511 21.7009 14.3958 19.2852 13.4717C18.919 13.3316 18.4943 13.2689 18.0326 13.2714Z" fill="white"/>
<path d="M8.74852 13.6482C4.35548 13.9059 3.52451 23.5986 7.86309 24.3347V24.3347C9.79646 24.6627 12.4117 23.8183 13.2602 18.8173C13.6819 16.3316 12.2217 14.7536 9.80609 13.8293C9.42705 13.6843 9.07495 13.6291 8.74852 13.6482Z" fill="white"/>
<path d="M18.0326 13.2714C11.6287 13.3068 8.28487 25.1334 14.5986 26.2046C16.532 26.5326 22.0044 24.7363 22.8527 19.7363C23.2744 17.2511 21.7009 14.3958 19.2852 13.4717C18.919 13.3316 18.4943 13.2689 18.0326 13.2714Z" fill="white"/>
<path d="M2.08752 17.2039L2.09016 17.1676V17.1311V11.3321C2.09016 9.64997 2.93602 8.08056 4.34111 7.15569L10.0795 3.37851C11.9768 2.12963 14.4776 2.31661 16.1681 3.83374L21.8828 8.96232C23.9938 10.8568 27.0393 11.2901 29.5949 10.0596L30.2987 9.72078C32.2509 8.78079 34.595 9.34105 35.9112 11.0623C36.5951 11.9565 36.9247 13.0718 36.8371 14.1941L35.5574 30.5742C35.4963 31.3558 35.2502 32.1117 34.8393 32.7793C33.9399 34.2409 32.3467 35.1311 30.6306 35.1311H5.74641C4.23131 35.1311 2.81262 34.3878 1.95021 33.1421C1.3502 32.2754 1.06481 31.2295 1.14147 30.1782L2.08752 17.2039Z" stroke="#092D4D" stroke-width="2"/>
<ellipse cx="15.5732" cy="21.1803" rx="0.934426" ry="1.2459" transform="rotate(19.6942 15.5732 21.1803)" fill="black"/>
<ellipse cx="9.34432" cy="20.557" rx="0.934426" ry="1.2459" transform="rotate(-5.49302 9.34432 20.557)" fill="black"/>
<circle cx="9.34468" cy="19.623" r="0.311475" fill="white"/>
<circle cx="9.34468" cy="19.623" r="0.311475" fill="white"/>
<circle cx="9.34468" cy="19.623" r="0.311475" fill="white"/>
<circle cx="15.5732" cy="20.246" r="0.311475" fill="white"/>
<circle cx="15.5732" cy="20.246" r="0.311475" fill="white"/>
<circle cx="15.5732" cy="20.246" r="0.311475" fill="white"/>
<rect x="5.91797" y="11.8618" width="4.36066" height="0.622951" rx="0.311475" transform="rotate(-8.55058 5.91797 11.8618)" fill="#092D4D"/>
<rect x="5.91797" y="11.8618" width="4.36066" height="0.622951" rx="0.311475" transform="rotate(-8.55058 5.91797 11.8618)" fill="#092D4D"/>
<rect x="5.91797" y="11.8618" width="4.36066" height="0.622951" rx="0.311475" transform="rotate(-8.55058 5.91797 11.8618)" fill="#092D4D"/>
<rect x="18.668" y="11.2129" width="4.36066" height="0.622951" rx="0.311475" transform="rotate(27.7598 18.668 11.2129)" fill="#092D4D"/>
<rect x="18.668" y="11.2129" width="4.36066" height="0.622951" rx="0.311475" transform="rotate(27.7598 18.668 11.2129)" fill="#092D4D"/>
<rect x="18.668" y="11.2129" width="4.36066" height="0.622951" rx="0.311475" transform="rotate(27.7598 18.668 11.2129)" fill="#092D4D"/>
<rect x="18.668" y="11.2129" width="4.36066" height="0.622951" rx="0.311475" transform="rotate(27.7598 18.668 11.2129)" fill="#092D4D"/>
<rect x="18.668" y="11.2129" width="4.36066" height="0.622951" rx="0.311475" transform="rotate(27.7598 18.668 11.2129)" fill="#092D4D"/>
<rect x="18.668" y="11.2129" width="4.36066" height="0.622951" rx="0.311475" transform="rotate(27.7598 18.668 11.2129)" fill="#092D4D"/>
<rect x="7.69922" y="29.5283" width="4.36066" height="0.622951" rx="0.311475" transform="rotate(2.81842 7.69922 29.5283)" fill="#092D4D"/>
<rect x="7.69922" y="29.5283" width="4.36066" height="0.622951" rx="0.311475" transform="rotate(2.81842 7.69922 29.5283)" fill="#092D4D"/>
<rect x="7.69922" y="29.5283" width="4.36066" height="0.622951" rx="0.311475" transform="rotate(2.81842 7.69922 29.5283)" fill="#092D4D"/>
</svg>
