<svg width="739" height="386" viewBox="0 0 739 386" fill="none" xmlns="http://www.w3.org/2000/svg">
<path d="M171.872 360.894L161 385.5H301L264.36 345.674C258.84 339.674 249.977 338.134 242.756 341.919L203.5 362.5L195.314 355.534C187.674 349.031 175.927 351.717 171.872 360.894Z" fill="#B5DDF2"/>
<path d="M273 355.5C254.601 357.103 246.039 355.062 234 346.5L241.5 342L248.5 339.5L256 340.5C265.709 345.426 269.071 348.82 273 355.5Z" fill="#CEE3EE"/>
<path d="M172.804 364.223L170.5 364C173.5 357.5 174.5 353.5 186 351.5C191.798 351.87 200.113 358.855 203.5 362.5L199.067 363.26C190.394 364.747 181.562 365.071 172.804 364.223Z" fill="#CEE3EE"/>
<path d="M27.2811 296.255L4 307H2.5V385H4H140L129.437 371.489C122.634 362.788 111.825 358.21 100.842 359.378L84.8569 361.079C77.1329 361.901 69.9344 357.056 67.7876 349.591L56.2634 309.518C52.7068 297.151 38.9651 290.862 27.2811 296.255Z" fill="#B5DDF2"/>
<path d="M17.2603 344.022L2 352.5V385.5H59.5L46.9186 354.485C42.1786 342.801 28.2828 337.898 17.2603 344.022Z" fill="#CEE3EE"/>
<path d="M720.5 48.5L735.329 59.2098C736.652 60.1651 738.5 59.22 738.5 57.5885V2.5L597 0.5L614.053 31.3582C616.351 35.5152 621.255 37.4828 625.788 36.0661L650 28.5L656.98 45.6332C659.355 51.463 665.329 54.9907 671.581 54.2551L720.5 48.5Z" fill="#B5DDF2"/>
<path d="M709.374 24.8544L738.5 20V2H693L696.933 16.8248C698.388 22.3095 703.777 25.7872 709.374 24.8544Z" fill="#CEE3EE"/>
<path d="M219.497 27.652L214.5 3.5V1.5H149.5V3.5L159.529 35.8656C159.972 37.2961 161.772 37.7499 162.841 36.7003L189 11L216.411 29.7091C217.897 30.7231 219.861 29.4134 219.497 27.652Z" fill="#B5DDF2"/>
<path d="M544.193 18.2466L540.566 2.6V1H436.5L447.73 25.7866C448.355 27.1652 449.908 27.8627 451.354 27.4132L477.122 19.4L503.893 42.8609C507.399 45.9329 512.871 44.7852 514.847 40.5637L526.873 14.8667L538.049 22.4585C541.059 24.5037 545.015 21.7921 544.193 18.2466Z" fill="#B5DDF2"/>
<path d="M16.2633 92.3475L0 75L3 0H132.5L128.034 25.0088C127.706 26.8466 126.381 28.3484 124.599 28.9036L97 37.5L91.1919 66.5404C90.3199 70.9003 85.6571 73.3531 81.5704 71.6016L54.5 60L28.2842 91.9505C25.2193 95.6859 19.568 95.8725 16.2633 92.3475Z" fill="#B5DDF2"/>
<path d="M38.0338 30.7043L3.5 28.5H2.5L0.5 1.5H74.5L58.3034 21.7457C53.4126 27.8593 45.8471 31.203 38.0338 30.7043Z" fill="#CEE3EE"/>
<path d="M702 367.385V336.5C702 326.283 710.283 318 720.5 318H739V384.5H662L670.8 368.912C675.113 361.271 685.603 360.01 691.604 366.411L695.082 370.121C697.562 372.766 702 371.011 702 367.385Z" fill="#B5DDF2"/>
<path d="M718.113 366.783C720.957 350.188 737.028 356.789 739 356V385.5H718V368.211C718 367.737 718.033 367.249 718.113 366.783Z" fill="#CEE3EE"/>
<path d="M531.785 352.738L520 385.5H591.5H660.5L650.891 339.445C648.444 327.712 635.429 321.604 624.84 327.217L563 360L559.783 352.136C554.58 339.417 536.436 339.808 531.785 352.738Z" fill="#B5DDF2"/>
<path d="M652 344.5C633.601 346.103 622.539 343.562 610.5 335L618 330.5L624.035 327.482C626.006 326.497 628.078 325.73 630.216 325.196C632.046 324.739 633.958 324.721 635.796 325.145L637.18 325.465C638.722 325.821 640.242 326.313 641.61 327.108C649.451 331.666 652 338.508 652 344.5Z" fill="#CEE3EE"/>
<path d="M545 359L530 357C532 351 534 342.928 546 342.5C560 342 559.5 356 563 359.5L545 359Z" fill="#CEE3EE"/>
</svg>
