<svg width="38" height="35" viewBox="0 0 38 35" fill="none" xmlns="http://www.w3.org/2000/svg">
<path d="M0 0H38L35.8639 35H1.13675L0 0Z" fill="black" fill-opacity="0.5"/>
<path d="M24.305 20.0569L24.4882 20.2776C25.0836 20.9946 26.169 21.1903 27.0158 20.7333L27.0717 20.7031C27.585 20.426 28.1698 20.2799 28.7653 20.2799C29.5966 20.2799 30.3212 20.799 30.5228 21.539L31 23.2906L30.9245 24.1217C30.7943 25.5551 30.3031 26.9412 29.4896 28.1708C28.8147 29.1909 27.6085 29.8137 26.3079 29.8137H10.1606C8.88369 29.8137 7.65679 29.3582 6.73919 28.5433L6.22315 28.0851C5.67497 27.5983 5.30573 26.9961 5.12624 26.3538C4.59999 24.4709 6.22069 22.8049 7.51244 21.3373V21.3373C7.98468 20.8008 8.88106 20.8156 9.33201 21.3673L9.39217 21.4409C9.57879 21.6693 9.72845 21.9212 9.83648 22.1888L10.3804 23.5364C10.7243 24.3884 11.8249 24.747 12.6774 24.2848C13.4339 23.8746 13.6835 22.9786 13.2344 22.2856L11.9064 20.2361C11.3554 19.3858 11.2244 18.3606 11.5459 17.4163C11.6636 17.0709 11.8555 16.7505 12.1102 16.4742L16.7561 11.4361C17.3611 10.7799 17.5219 9.87083 17.174 9.07278L16.7354 8.06674C16.4371 7.38235 17.2497 6.73802 17.9444 7.10815C19.705 7.85377 21.2916 8.90503 22.6168 10.2039L24.4142 11.9658C25.7166 13.2423 25.9153 15.1647 24.8977 16.6432L24.1908 17.6703C23.6819 18.4096 23.7274 19.3613 24.305 20.0569Z" fill="#2CA6FF"/>
<path d="M25.2755 27.3225L24.3237 28.5811C23.7964 29.2783 22.9728 29.6881 22.0986 29.6881H14.4265C13.9242 29.6881 13.4381 29.5101 13.0545 29.1857L12.4946 28.712C11.9798 28.2765 11.8784 27.5219 12.26 26.966C12.3431 26.8449 12.446 26.7386 12.5643 26.6515L13.1589 26.2138C13.4338 26.0115 13.8187 26.0588 14.0364 26.3216L14.6073 27.0106C14.8625 27.3187 15.2979 27.4075 15.6534 27.2239C16.1071 26.9895 16.2538 26.4111 15.9666 25.9888L15.5899 25.4351C15.26 24.9502 15.2561 24.3139 15.58 23.8249L16.3043 22.7313C16.439 22.528 16.5951 22.3398 16.77 22.17L18.3016 20.6825L17.8518 19.6996C17.6929 19.3522 18.0607 18.999 18.4013 19.1718L19.6975 19.6947L21.5749 21.4475C22.1735 22.0064 22.2627 22.9233 21.7831 23.587L21.5524 23.9063C21.2447 24.332 21.2713 24.9136 21.6164 25.3095C21.9055 25.6411 22.3609 25.7747 22.7834 25.6516L23.8998 25.3263C24.2691 25.2187 24.6673 25.2833 24.9836 25.5022C25.5809 25.9155 25.7136 26.7432 25.2755 27.3225Z" fill="#96D3FF"/>
</svg>
